<svg

  version="1.1"
  xmlns="http://www.w3.org/2000/svg"
  xlink="http://www.w3.org/1999/xlink"
  viewBox="0 0 199.971 199.971"
  >
<path
d="M100.329,199.971c-8.94,0.001-17.713-1.932-26.254-5.795c-9.85-4.455-19.311-9.927-28.119-16.263
	c-0.385-0.277-0.748-0.571-1.091-0.882l-9.475,7.618c-0.657,0.53-1.577,0.589-2.297,0.147c-0.328-0.201-8.119-5.011-14.715-12.703
	c-6.619-7.718-9.52-15.298-9.64-15.616c-0.262-0.694-0.118-1.477,0.373-2.031l5.823-6.579c0.143-0.161,0.305-0.293,0.479-0.396
	c-2.977-5.789-6.973-16.56-8.414-34.295C5.724,97.471,7.713,84.593,12.91,74.899c0.278-0.519,0.689-1.368,1.134-2.285
	c0.762-1.57,1.549-3.195,2.092-4.082c0.535-0.874,1.117-1.881,1.763-2.997c5.012-8.665,14.34-24.792,35.653-37.082
	c18.063-10.415,27.051-11.498,34.98-12.454c4.717-0.568,8.789-1.06,14.271-3.512c13.948-6.236,16.734-11.339,16.761-11.39
	c0.266-0.508,0.746-0.896,1.303-1.034c0.554-0.14,1.154-0.049,1.626,0.277c1.461,1.01,8.755,6.306,8.834,11.424
	c0.039,2.481-0.822,4.179-1.451,5.417c-0.645,1.271-0.622,1.301-0.35,1.664c0.292,0.388,0.824,0.602,1.668,0.919
	c2.014,0.757,5.057,1.899,5.198,7.775c0.113,4.68-2.358,7.293-4.369,9.188c3.975,1.982,14.168,7.39,22.253,14.474
	c5.223,4.576,9.319,9.926,11.837,13.606c1.92,2.808,3.077,4.66,3.738,5.928c2.576-1.395,4.327-1.994,5.688-2.46
	c1.597-0.546,2.477-0.848,3.859-2.129c4.597-4.261,12.108-0.912,13.016-0.284c0.513,0.354,0.846,0.912,0.914,1.529
	c0.127,1.146-0.528,1.855-1.718,3.142c-1.979,2.14-6.095,6.593-8.072,14.149c-1.771,6.771-1.401,14.64-1.075,21.581
	c0.206,4.383,0.4,8.522,0.005,11.794c-1.291,10.696-3.978,32.955-20.405,51.252c-7.855,8.75-17.713,16.393-27.91,21.751
	c-0.178,0.135-0.376,0.236-0.585,0.305c-2.516,1.299-5.049,2.457-7.576,3.458C117.327,198.256,108.753,199.971,100.329,199.971z
	 M89.346,194.847c14.943,2.798,29.492-0.554,42.173-6.961c0.879-1.789,3.423-7.775,3.233-16.826
	c-0.222-10.666-2.071-14.035-2.09-14.067c-0.537-0.945-0.232-2.166,0.701-2.724c0.933-0.559,2.131-0.287,2.709,0.633
	c0.248,0.395,2.432,4.199,2.68,16.074c0.122,5.891-0.801,10.601-1.802,13.917c8.607-5.143,16.161-11.6,22.136-18.254
	c3.101-3.454,5.687-7.067,7.85-10.722c-0.732-1.789-2.38-6.958-1.485-15.637c1.042-10.108,1.425-15.62,1.429-15.674
	c0.075-1.102,1.046-1.923,2.132-1.858c1.103,0.075,1.935,1.03,1.858,2.132c-0.004,0.056-0.391,5.625-1.44,15.811
	c-0.458,4.452-0.183,7.831,0.237,10.158c6.394-13.075,7.95-25.971,8.831-33.27c0.354-2.939,0.168-6.916-0.029-11.126
	c-0.34-7.229-0.725-15.421,1.201-22.781c2.059-7.869,6.115-12.692,8.457-15.258c-1.863-0.485-4.491-0.742-6.009,0.667
	c-2.005,1.858-3.524,2.378-5.283,2.98c-1.663,0.568-3.731,1.276-7.33,3.501c-3.322,2.054-3.401,4.746-3.255,8.97
	c0.098,2.794,0.207,5.961-1.425,8.76c-2.854,4.895-6.329,3.77-8.627,3.031c-1.244-0.402-2.326-0.752-3.454-0.49
	c-0.106,0.864,0.633,3.286,1.182,5.086c1.262,4.137,2.989,9.802,2.054,15.52c-0.523,3.194-1.481,5.148-3.016,6.149
	c-1.791,1.17-3.698,0.681-5.229,0.285c-2.013-0.518-2.405-0.471-2.983,0.368c-2.213,3.202-2.831,6.125-3.687,10.17
	c-0.361,1.705-0.771,3.638-1.353,5.812c-0.909,3.396-2.654,5.771-5.188,7.059c-3.85,1.958-9.395,1.419-17.446-1.696
	c-6.786-2.625-12.963-3.229-16.949-3.272c-0.021,0-0.042,0-0.063,0c-1.738,0-3.307,0.812-5.033,2.08
	c-11.546,11.066-24.261,17.31-36.791,17.877c-2.421,0.109-4.971,0.019-7.553-0.219c-2.815,0.707-4.512,2.883-5.203,4.962
	c-0.861,2.588-0.577,6.22,2.806,8.652c8.594,6.182,17.823,11.521,27.432,15.866c2.904,1.313,5.811,2.363,8.707,3.171
	c1.277-0.964,7.186-5.651,12.636-13.737c-0.421-0.954-2.882-6.727-3.18-11.84c-0.148-2.55-0.234-5.829,0.194-6.97l3.744,1.408
	c0,0,0.025-0.045,0.053-0.165c-0.011,0.046-0.249,1.177,0.003,5.494c0.156,2.684,1.058,5.705,1.813,7.824
	c6.08-10.539,6.974-14.294,6.982-14.332c0.241-1.068,1.302-1.752,2.372-1.524c1.071,0.229,1.761,1.268,1.543,2.341
	c-0.088,0.435-1.058,4.587-7.929,16.37C98.002,186.563,92.585,192.005,89.346,194.847z M12.941,156.155
	c1.017,2.285,3.746,7.821,8.475,13.335c4.725,5.511,10.242,9.53,12.602,11.131l7.485-6.019c-2.741-2.104-7.14-5.525-9.947-7.938
	c-7.422-6.373-12.768-13.71-12.992-14.02c-0.092-0.127-0.166-0.261-0.225-0.398c-0.231-0.306-0.522-0.71-0.859-1.219L12.941,156.155
	z M26.248,155.744c2.108,2.39,4.84,5.247,7.913,7.886c1.88,1.615,4.556,3.743,6.925,5.591c-0.086-1.468,0.108-2.979,0.605-4.472
	c0.585-1.76,1.526-3.288,2.729-4.521C37.529,159.073,30.907,157.217,26.248,155.744z M21.62,149.945
	c2.739,1.002,16.354,5.802,28.881,7.064c0.781-0.143,1.594-0.207,2.421-0.193c3.864,0.07,7.559-0.204,10.972-0.827
	c12.541-2.292,20.713-9.157,25.595-13.259c0.86-0.724,1.632-1.37,2.319-1.909c0.217-0.17,0.437-0.339,0.659-0.506
	c3.453-3.334,6.806-7.129,10.016-11.36c12.69-16.727,11.901-24.726,11.522-28.569l-0.054-0.559c-0.089-0.994-0.647-2.795-1.238-4.7
	c-1.536-4.954-3.639-11.738-1.652-16.744c1.834-4.62,6.505-5.036,11.021-5.438c3.239-0.288,6.589-0.587,9.2-2.318
	c5.595-3.711,2.775-13.259,0.228-18.314c-1.007-1.998-2.248-3.501-3.343-4.826c-1.877-2.271-3.817-4.62-2.929-8.162
	c0.567-2.263,2.135-3.725,3.65-5.139c1.922-1.794,3.583-3.344,3.506-6.549c-0.077-3.177-0.976-3.514-2.606-4.127
	c-1.093-0.41-2.453-0.921-3.459-2.261c-1.792-2.384-0.768-4.402-0.021-5.876c0.536-1.056,1.042-2.054,1.019-3.545
	c-0.028-1.873-2.926-4.909-5.536-7.016c-2.032,2.38-6.783,6.601-17.354,11.328c-6.035,2.698-10.596,3.248-15.425,3.83
	c-7.55,0.91-16.107,1.941-33.462,11.948c-20.386,11.755-29.026,26.693-34.188,35.62c-0.664,1.147-1.264,2.183-1.813,3.082
	c-0.441,0.721-1.253,2.395-1.904,3.739c-0.474,0.976-0.912,1.878-1.208,2.431l0,0c-4.476,8.346-6.377,19.38-5.665,32.835
	c2.994-10.081,9.108-25.07,21.21-38.999c20.287-23.351,59.702-36.093,61.37-36.624c1.056-0.332,2.178,0.248,2.512,1.3
	c0.335,1.052-0.246,2.177-1.298,2.512c-0.379,0.121-36.208,11.708-56.533,32.179c3.939,1.297,13.086,3.896,19.446,2.441
	c2.616-0.597,4.877-1.164,6.871-1.665c4.936-1.24,8.502-2.136,12.699-2.299c0.026-0.002,0.054-0.002,0.079-0.002
	c1.069,0,1.956,0.845,1.997,1.922c0.043,1.104-0.816,2.034-1.92,2.076c-3.602,0.141-6.853,0.921-11.213,2.014l3.897,3.74
	c0.797,0.766,0.823,2.031,0.059,2.828c-0.767,0.797-2.031,0.823-2.828,0.059l-5.717-5.487c-0.955,0.231-1.965,0.471-3.036,0.715
	c-8.702,1.982-20.957-2.27-23.318-3.14c-0.016,0.018-0.032,0.037-0.048,0.055c-6.494,7.475-11.203,15.341-14.597,22.52
	c5.332-2.901,14.038-6.645,19.579-3.879c3.68,1.836,6.48,5.14,9.19,8.335c2.961,3.493,5.758,6.792,9.423,8.032
	c1.046,0.354,1.607,1.489,1.253,2.536c-0.354,1.046-1.487,1.608-2.536,1.253c-4.715-1.596-8.007-5.479-11.191-9.234
	c-1.156-1.364-2.284-2.694-3.445-3.879c-0.839,2.598-2.238,7.513-2.283,11.526c-0.064,5.714,2.789,13.805,2.817,13.886
	c0.37,1.041-0.173,2.185-1.213,2.555c-1.04,0.372-2.185-0.172-2.555-1.213c-0.128-0.357-3.122-8.839-3.05-15.272
	c0.063-5.648,2.357-12.461,2.999-14.259c-0.39-0.253-0.787-0.482-1.194-0.686c-4.992-2.488-16.455,3.896-20.078,6.33
	c-0.137,0.092-0.281,0.165-0.43,0.219c-4.517,11.383-5.615,19.824-5.633,19.972c-0.003,0.019-0.005,0.037-0.008,0.056
	C14.807,140.151,20.322,148.249,21.62,149.945z M100.822,137.324c4.322,0.105,10.713,0.828,17.699,3.53
	c6.727,2.603,11.503,3.228,14.191,1.86c1.499-0.761,2.524-2.242,3.137-4.527c0.554-2.07,0.935-3.867,1.302-5.604
	c0.881-4.16,1.641-7.753,4.31-11.615c2.253-3.262,5.395-2.452,7.271-1.968c0.812,0.208,1.731,0.446,2.046,0.238
	c0.129-0.084,0.796-0.646,1.255-3.446c0.785-4.797-0.722-9.737-1.933-13.706c-1.123-3.683-1.935-6.344-0.827-8.331
	c0.342-0.612,1.026-1.416,2.349-1.764c2.301-0.605,4.244,0.021,5.806,0.525c2.187,0.704,2.709,0.876,3.943-1.24
	c1.049-1.8,0.969-4.134,0.883-6.605c-0.132-3.803-0.295-8.475,4.147-11.827c-1.454-2.632-6.741-11.605-14.761-18.634
	c-8.44-7.396-19.644-13.05-22.363-14.372c-0.066,0.15-0.12,0.303-0.159,0.459c-0.365,1.457,0.222,2.327,2.133,4.641
	c1.169,1.414,2.623,3.175,3.832,5.573c3.901,7.743,5.826,18.53-1.589,23.449c-3.457,2.292-7.494,2.651-11.056,2.969
	c-4.301,0.383-6.776,0.708-7.658,2.93c-1.467,3.694,0.395,9.699,1.754,14.084c0.684,2.205,1.274,4.11,1.402,5.525l0.05,0.524
	c0.43,4.352,1.322,13.405-12.315,31.381C104.088,133.457,102.47,135.442,100.822,137.324z"
/>
  </svg>
