<svg aria-hidden="true" style="position: absolute; width: 0; height: 0; overflow: hidden;" version="1.1" xmlns="http://www.w3.org/2000/svg" xmlns:xlink="http://www.w3.org/1999/xlink">
<defs>
<symbol id="arrow-up" viewBox="0 0 20 20">
<path d="M15.484 12.452c-0.436 0.446-1.043 0.481-1.576 0l-3.908-3.747-3.908 3.747c-0.533 0.481-1.141 0.446-1.574 0-0.436-0.445-0.408-1.197 0-1.615 0.406-0.418 4.695-4.502 4.695-4.502 0.217-0.223 0.502-0.335 0.787-0.335s0.57 0.112 0.789 0.335c0 0 4.287 4.084 4.695 4.502s0.436 1.17 0 1.615z"></path>
</symbol>
<symbol id="arrow-down" viewBox="0 0 20 20">
<path d="M4.516 7.548c0.436-0.446 1.043-0.481 1.576 0l3.908 3.747 3.908-3.747c0.533-0.481 1.141-0.446 1.574 0 0.436 0.445 0.408 1.197 0 1.615-0.406 0.418-4.695 4.502-4.695 4.502-0.217 0.223-0.502 0.335-0.787 0.335s-0.57-0.112-0.789-0.335c0 0-4.287-4.084-4.695-4.502s-0.436-1.17 0-1.615z"></path>
</symbol>
<symbol id="arrow_left" viewBox="0 0 19 32">
<path stroke="#ff751d" style="stroke: var(--color1, #ff751d)" stroke-linejoin="miter" stroke-linecap="butt" stroke-miterlimit="4" stroke-width="5.3333" d="M16 2.667l-10.667 13.333 10.667 13.333"></path>
</symbol>
<symbol id="arrow_right" viewBox="0 0 19 32">
<path stroke="#ff751d" style="stroke: var(--color1, #ff751d)" stroke-linejoin="miter" stroke-linecap="butt" stroke-miterlimit="4" stroke-width="5.3333" d="M2.667 2.667l10.667 13.333-10.667 13.333"></path>
</symbol>
<symbol id="trash-can" viewBox="0 0 28 32">
<path d="M27.214 7.153l-0.707-2.118c-0.269-0.807-1.021-1.349-1.871-1.349h-5.938v-1.933c0-0.966-0.786-1.753-1.752-1.753h-5.438c-0.966 0-1.752 0.786-1.752 1.753v1.933h-5.938c-0.85 0-1.603 0.542-1.872 1.349l-0.707 2.118c-0.161 0.482-0.079 1.016 0.218 1.428s0.778 0.659 1.286 0.659h0.739l1.626 20.1c0.121 1.491 1.386 2.66 2.882 2.66h12.804c1.495 0 2.761-1.169 2.882-2.66l1.625-20.1h0.409c0.508 0 0.989-0.246 1.286-0.658s0.379-0.947 0.218-1.429v0zM11.632 1.875h5.191v1.811h-5.191v-1.811zM21.807 29.189c-0.043 0.525-0.487 0.936-1.013 0.936h-12.804c-0.525 0-0.97-0.411-1.013-0.936l-1.614-19.949h18.056l-1.613 19.949zM3.147 7.365l0.579-1.737c0.013-0.040 0.051-0.067 0.093-0.067h20.818c0.042 0 0.079 0.027 0.093 0.067l0.579 1.737h-22.162z"></path>
<path d="M18.817 29.122c0.017 0.001 0.033 0.001 0.050 0.001 0.495 0 0.909-0.388 0.935-0.889l0.88-16.9c0.027-0.517-0.371-0.958-0.887-0.985-0.518-0.028-0.958 0.37-0.985 0.887l-0.88 16.9c-0.027 0.517 0.37 0.958 0.887 0.985v0z"></path>
<path d="M8.695 28.237c0.027 0.5 0.441 0.887 0.935 0.887 0.017 0 0.035-0.001 0.052-0.002 0.517-0.028 0.913-0.47 0.885-0.987l-0.922-16.9c-0.028-0.517-0.47-0.913-0.987-0.885s-0.913 0.47-0.885 0.987l0.922 16.9z"></path>
<path d="M14.238 29.124c0.518 0 0.938-0.42 0.938-0.938v-16.9c0-0.518-0.42-0.938-0.938-0.938s-0.938 0.42-0.938 0.938v16.9c0 0.518 0.42 0.938 0.938 0.938z"></path>
</symbol>
<symbol id="bar_chart" viewBox="0 0 32 32">
<path style="fill: var(--color2, #52555f)" d="M6.667 12.267h4v13.067h-4v-13.067zM14.133 6.667h3.733v18.667h-3.733v-18.667zM21.6 17.333h3.733v8h-3.733v-8z"></path>
</symbol>
<symbol id="Education" viewBox="0 0 32 32">
<path d="M31.379 6.431h-2.109v-0.72c0-0.007 0-0.016 0-0.024 0-0.281-0.187-0.518-0.443-0.595l-0.004-0.001c-1.329-0.363-2.855-0.571-4.43-0.571-0.015 0-0.030 0-0.044 0h0.002c-2.481 0-5.862 0.558-8.361 3.102-2.481-2.568-5.887-3.102-8.362-3.102-0.013-0-0.027-0-0.042-0-1.575 0-3.101 0.208-4.552 0.599l0.122-0.028c-0.274 0.080-0.458 0.335-0.446 0.62v0.714h-2.090c-0.342 0.001-0.62 0.278-0.62 0.621v19.812c0.001 0.342 0.278 0.619 0.621 0.619 0.111 0 0.216-0.029 0.306-0.081l-0.003 0.002c0.062-0.031 6.265-3.424 14.924-1.241h0.149c0.049 0.006 0.099 0.006 0.149 0 8.684-2.202 14.887 1.185 14.924 1.24 0.089 0.052 0.196 0.083 0.31 0.083 0.341 0 0.618-0.276 0.621-0.616v-19.812c0-0.343-0.278-0.62-0.621-0.62zM1.241 25.87v-18.199h1.482v15.557c-0 0.002-0 0.005-0 0.007 0 0.343 0.278 0.621 0.621 0.621 0.033 0 0.065-0.003 0.097-0.008l-0.003 0c1.157-0.186 2.499-0.299 3.865-0.31l0.012-0c1.798-0.031 3.589 0.239 5.297 0.8-0.822-0.105-1.774-0.165-2.739-0.165-3.112 0-6.079 0.623-8.782 1.752l0.151-0.056zM7.313 22.304c-1.192 0.003-2.363 0.082-3.512 0.232l0.138-0.015v-16.32c1.104-0.257 2.373-0.406 3.676-0.409h0.002c2.32 0 5.52 0.534 7.741 3.040l0.019 15.451c-1.29-0.844-3.809-1.979-8.063-1.979zM16.617 8.831c2.221-2.481 5.421-3.039 7.741-3.039 1.237 0.004 2.47 0.141 3.678 0.41v16.319c-1.003-0.136-2.167-0.217-3.349-0.223l-0.007-0c-4.23 0-6.754 1.135-8.063 1.978v-15.445zM30.753 25.871c-2.555-1.075-5.524-1.7-8.639-1.7-0.971 0-1.928 0.061-2.867 0.178l0.112-0.011c1.5-0.509 3.228-0.803 5.025-0.803 0.104 0 0.209 0.001 0.313 0.003l-0.016-0c1.306 0.007 2.61 0.109 3.902 0.304 0.028 0.004 0.060 0.007 0.093 0.007 0.343 0 0.621-0.278 0.621-0.621 0-0.002 0-0.004-0-0.007v0-15.551h1.483l-0.025 18.199z"></path>
</symbol>
<symbol id="calculator" viewBox="0 0 32 32">
<path d="M27.25 0h-22.498c-1.554 0-2.814 1.259-2.816 2.813v26.375c0 1.552 1.261 2.813 2.813 2.813h22.499c1.553-0.002 2.811-1.26 2.813-2.813v-26.375c-0.002-1.552-1.259-2.81-2.811-2.813h-0zM28.187 29.187c-0.001 0.517-0.42 0.937-0.938 0.938h-22.498c-0.517-0.001-0.937-0.42-0.938-0.938v-26.375c0-0.517 0.421-0.938 0.938-0.938h22.496c0.517 0 0.938 0.421 0.938 0.938v26.374z"></path>
<path d="M25.376 3.75h-18.752c-0.517 0.001-0.936 0.42-0.936 0.938 0 0 0 0 0 0v0 7.624c0 0.518 0.419 0.938 0.938 0.938h18.749c0.518 0 0.938-0.42 0.938-0.938v0-7.624c0-0.518-0.42-0.938-0.938-0.938v0zM24.437 11.374h-16.874v-5.749h16.874v5.749zM10.374 15.125h-3.749c-0.518 0-0.938 0.42-0.938 0.938v3.75c0 0.517 0.419 0.938 0.938 0.938h3.749c0.518 0 0.938-0.42 0.938-0.938v0-3.75c0-0.518-0.42-0.938-0.938-0.938v0zM9.437 18.875h-1.874v-1.875h1.874v1.875zM10.374 22.624h-3.749c0 0 0 0 0 0-0.518 0-0.938 0.42-0.938 0.938 0 0.001 0 0.001 0 0.002v-0 3.749c0 0.518 0.419 0.938 0.938 0.938h3.749c0.518 0 0.938-0.42 0.938-0.938v0-3.749c0-0.518-0.42-0.938-0.938-0.938v0zM9.437 26.374h-1.874v-1.875h1.874v1.875zM17.875 15.125h-3.75c-0.518 0-0.938 0.42-0.938 0.938v3.75c0 0.517 0.421 0.938 0.938 0.938h3.75c0.518 0 0.938-0.42 0.938-0.938v0-3.75c0-0.518-0.42-0.938-0.938-0.938v0zM16.938 18.875h-1.875v-1.875h1.875v1.875zM17.875 22.624h-3.75c0 0 0 0 0 0-0.518 0-0.938 0.42-0.938 0.938 0 0.001 0 0.001 0 0.002v-0 3.749c0 0.518 0.421 0.938 0.938 0.938h3.75c0.518 0 0.938-0.42 0.938-0.938v0-3.749c0-0.518-0.42-0.938-0.938-0.938v0zM16.938 26.374h-1.875v-1.875h1.875v1.875zM25.376 15.125h-3.75c-0.518 0-0.938 0.42-0.938 0.938v0 11.25c0 0.518 0.419 0.938 0.938 0.938h3.749c0.518 0 0.938-0.42 0.938-0.938v0-11.248c0-0 0-0.001 0-0.002 0-0.518-0.42-0.938-0.938-0.938 0 0 0 0 0 0v0zM24.437 26.374h-1.874v-9.374h1.874v9.376z"></path>
</symbol>
<symbol id="calendar" viewBox="0 0 34 32">
<path d="M28.424 3.307h-2.136v-0.514c-0.004-0.519-0.425-0.938-0.944-0.938-0.003 0-0.007 0-0.010 0h0c-0.002-0-0.005-0-0.008-0-0.519 0-0.94 0.419-0.944 0.937v0.512h-2.63v-0.512c-0.004-0.519-0.425-0.938-0.944-0.938-0.003 0-0.006 0-0.008 0h0c-0.003-0-0.006-0-0.010-0-0.519 0-0.94 0.419-0.944 0.937v0.512h-2.63v-0.512c-0.004-0.519-0.425-0.938-0.944-0.938-0.003 0-0.006 0-0.008 0h0c-0.003-0-0.006-0-0.010-0-0.519 0-0.94 0.419-0.944 0.937v0.512h-2.629v-0.512c-0.004-0.519-0.425-0.938-0.944-0.938-0.003 0-0.006 0-0.008 0h0c-0.003-0-0.006-0-0.010-0-0.519 0-0.94 0.419-0.944 0.937v0.512h-2.63v-0.512c-0.004-0.519-0.425-0.938-0.944-0.938-0.003 0-0.006 0-0.008 0h0c-0.003-0-0.006-0-0.010-0-0.519 0-0.94 0.419-0.944 0.937v0.512h-2.134c-2.264 0.002-4.106 1.814-4.106 4.042v18.758c0 2.229 1.842 4.040 4.106 4.040h24.318c2.264 0 4.106-1.813 4.106-4.038v-18.763c0-2.227-1.842-4.038-4.106-4.038zM30.624 26.104c0 1.194-0.987 2.165-2.2 2.165h-24.318c-0.004 0-0.009 0-0.014 0-1.199 0-2.173-0.966-2.185-2.162v-15.336h28.718v15.334zM30.624 8.896h-28.72v-1.55c0-1.192 0.987-2.163 2.2-2.163h2.136v0.362c0.004 0.519 0.425 0.938 0.944 0.938 0.003 0 0.007-0 0.010-0h-0c0.002 0 0.005 0 0.008 0 0.519 0 0.94-0.419 0.944-0.937v-0.36h2.63v0.362c0.004 0.519 0.425 0.938 0.944 0.938 0.003 0 0.007-0 0.010-0h-0.001c0.002 0 0.005 0 0.008 0 0.519 0 0.94-0.419 0.944-0.937v-0.362h2.63v0.362c0.004 0.519 0.425 0.938 0.944 0.938 0.003 0 0.007-0 0.010-0h-0c0.002 0 0.005 0 0.008 0 0.519 0 0.94-0.419 0.944-0.937v-0.362h2.63v0.362c0.004 0.519 0.425 0.938 0.944 0.938 0.003 0 0.007-0 0.010-0h-0c0.002 0 0.005 0 0.008 0 0.519 0 0.94-0.419 0.944-0.937v-0.362h2.63v0.362c0.004 0.519 0.425 0.938 0.944 0.938 0.003 0 0.006 0 0.008-0h-0c0.003 0 0.006 0 0.010 0 0.519 0 0.94-0.419 0.944-0.937v-0.362h2.134c1.213 0 2.2 0.971 2.2 2.163v1.552z"></path>
<path d="M10.624 12.771h-3.76c-0.003-0-0.006-0-0.010-0-0.519 0-0.94 0.419-0.944 0.937v3.828c0.004 0.519 0.425 0.938 0.944 0.938 0.003 0 0.007-0 0.010-0h3.76c0.003 0 0.006 0 0.010 0 0.519 0 0.94-0.419 0.944-0.937v-3.829c-0.005-0.518-0.425-0.936-0.944-0.936-0.003 0-0.007 0-0.010 0h0.001zM9.67 16.598h-1.854v-1.952h1.856v1.952zM18.144 12.771h-3.76c-0.002-0-0.005-0-0.008-0-0.519 0-0.94 0.419-0.944 0.937v3.828c0.004 0.519 0.425 0.938 0.944 0.938 0.003 0 0.006 0 0.008-0h3.76c0.003 0 0.006 0 0.010 0 0.519 0 0.94-0.419 0.944-0.937v-3.829c-0.005-0.518-0.425-0.936-0.944-0.936-0.003 0-0.006 0-0.008 0h0zM17.192 16.598h-1.854v-1.952h1.856v1.952zM25.666 12.771h-3.76c-0.003-0-0.006-0-0.010-0-0.519 0-0.94 0.419-0.944 0.937v3.828c0.004 0.519 0.425 0.938 0.944 0.938 0.003 0 0.007-0 0.010-0h3.759c0.003 0 0.006 0 0.010 0 0.519 0 0.94-0.419 0.944-0.937v-3.829c-0.005-0.518-0.425-0.936-0.944-0.936-0.003 0-0.007 0-0.010 0h0zM24.714 16.598h-1.856v-1.952h1.856v1.952zM10.624 20.042h-3.76c-0.003-0-0.006-0-0.010-0-0.519 0-0.94 0.419-0.944 0.937v3.828c0.004 0.519 0.425 0.938 0.944 0.938 0.003 0 0.007-0 0.010-0h3.76c0.003 0 0.006 0 0.010 0 0.519 0 0.94-0.419 0.944-0.937v-3.828c-0.004-0.519-0.425-0.938-0.944-0.938-0.003 0-0.007 0-0.010 0h0.001zM9.67 23.869h-1.854v-1.952h1.856v1.952zM18.144 20.042h-3.76c-0.002-0-0.005-0-0.008-0-0.519 0-0.94 0.419-0.944 0.937v3.828c0.004 0.519 0.425 0.938 0.944 0.938 0.003 0 0.006 0 0.008-0h3.76c0.003 0 0.006 0 0.010 0 0.519 0 0.94-0.419 0.944-0.937v-3.828c-0.004-0.519-0.425-0.938-0.944-0.938-0.003 0-0.006 0-0.008 0h0zM17.192 23.869h-1.854v-1.952h1.856v1.952zM25.666 20.042h-3.76c-0.003-0-0.006-0-0.010-0-0.519 0-0.94 0.419-0.944 0.937v3.828c0.004 0.519 0.425 0.938 0.944 0.938 0.003 0 0.007-0 0.010-0h3.759c0.003 0 0.006 0 0.010 0 0.519 0 0.94-0.419 0.944-0.937v-3.828c-0.004-0.519-0.425-0.938-0.944-0.938-0.003 0-0.007 0-0.010 0h0zM24.714 23.869h-1.856v-1.952h1.856v1.952z"></path>
</symbol>
<symbol id="Transport" viewBox="0 0 32 32">
<path d="M30.776 12.821l-0.697-0.739-2.448-6.598c-0.419-1.092-1.457-1.854-2.673-1.86h-17.484c-1.218 0.003-2.257 0.766-2.668 1.84l-0.007 0.020-2.414 6.516-1.005 0.93c-0.847 0.725-1.38 1.794-1.381 2.988v9.613c0.008 1.573 1.284 2.845 2.858 2.845 0 0 0 0 0 0h1.805c1.574-0 2.85-1.272 2.858-2.844v-1.395h16.958v1.394c0.008 1.573 1.284 2.844 2.858 2.845h1.807c1.573-0.001 2.849-1.272 2.857-2.844v-9.867c-0.006-1.118-0.474-2.126-1.223-2.843l-0.001-0.001zM6.086 5.949c0.217-0.564 0.755-0.957 1.384-0.957 0.002 0 0.003 0 0.004 0h17.49c0.615 0 1.169 0.383 1.389 0.957l2.133 5.744h-1.593c-0.343-2.278-2.287-4.004-4.634-4.004-0.245 0-0.485 0.019-0.719 0.055l0.026-0.003c-2.046 0.31-3.642 1.907-3.949 3.927l-0.003 0.026h-13.662l2.134-5.744zM25.497 11.693h-6.502c0.327-1.52 1.66-2.642 3.255-2.642 0.242 0 0.478 0.026 0.705 0.075l-0.022-0.004c1.289 0.282 2.286 1.281 2.56 2.55l0.004 0.022zM6.154 25.531c-0.005 0.817-0.669 1.477-1.487 1.477-0.002 0-0.003 0-0.005 0h-1.804c-0.001 0-0.003 0-0.004 0-0.818 0-1.481-0.66-1.487-1.477v-1.792c0.41 0.267 0.95 0.397 1.491 0.397h3.295v1.395zM30.633 25.531c-0.006 0.817-0.669 1.477-1.487 1.477-0.001 0-0.003 0-0.004 0h-1.804c-0.818-0.001-1.482-0.66-1.49-1.476v-1.395h3.295c0.541 0 1.080-0.13 1.491-0.397v1.791zM29.142 22.769h-26.283c-0.005 0-0.010 0-0.015 0-0.81 0-1.468-0.653-1.475-1.462v-5.389c0-0.752 0.335-1.47 0.91-1.955l0.027-0.027 0.93-0.875h25.894l0.657 0.704c0.006 0.014 0.027 0.021 0.034 0.034 0.496 0.47 0.805 1.132 0.807 1.867v5.641h0.007c-0.009 0.81-0.668 1.463-1.48 1.463-0.004 0-0.008 0-0.012-0h0.001z"></path>
<path d="M9.026 15.795h-5.129c-0.377 0.001-0.682 0.307-0.683 0.684v3.556c0.001 0.377 0.306 0.683 0.683 0.684h5.129c0.377-0.001 0.682-0.307 0.683-0.684v-3.556c-0.001-0.377-0.306-0.683-0.683-0.684h-0zM8.342 19.35h-3.76v-2.188h3.76v2.189zM28.103 15.795h-5.129c-0.377 0.001-0.683 0.307-0.684 0.684v3.556c0.001 0.377 0.307 0.683 0.684 0.684h5.128c0.377-0.001 0.683-0.307 0.684-0.684v-3.556c-0.001-0.377-0.307-0.683-0.684-0.684h-0zM27.419 19.35h-3.761v-2.188h3.76v2.189zM19.303 18.666h-6.606c-0.377 0.001-0.682 0.307-0.683 0.684v0c0.001 0.377 0.307 0.683 0.684 0.684h6.605c0.377-0.001 0.683-0.307 0.684-0.684v-0c-0.001-0.377-0.307-0.683-0.684-0.684h-0zM19.303 16.547h-6.606c-0.377 0.001-0.682 0.307-0.683 0.684v0c0.001 0.377 0.307 0.682 0.684 0.683h6.605c0.377-0.001 0.683-0.306 0.684-0.683v-0c-0.001-0.377-0.307-0.683-0.684-0.684h-0z"></path>
</symbol>
<symbol id="Sports, hobbies" viewBox="0 0 32 32">
<path d="M31.020 13.515h-1.907c-0.353 0-0.665 0.182-0.847 0.456-1.458-0.152-1.653-0.386-1.81-0.577-0.213-0.257-0.463-0.473-0.743-0.646l-0.013-0.007-4.383-2.662c-0.892-2.073-2.385-3.37-3.493-4.096-0.417-0.277-0.689-0.745-0.689-1.276 0-0.002 0-0.004 0-0.006v0c0-0.306 0.090-0.603 0.261-0.857l1.090-1.622c0.217-0.323 0.292-0.71 0.211-1.091-0.142-0.65-0.713-1.13-1.395-1.13h-5.178c-0 0-0 0-0.001 0-0.787 0-1.426 0.638-1.426 1.426 0 0.297 0.091 0.573 0.246 0.801l-0.003-0.005 1.090 1.622c0.171 0.254 0.261 0.551 0.261 0.857 0 0.52-0.257 0.999-0.689 1.282-1.642 1.077-5.31 4.25-3.923 10.451 0.774 3.459 1.371 5.897 1.731 7.071h-7.73c-0.638 0-1.195 0.453-1.325 1.077l-0.263 1.268c-0.083 0.401 0.017 0.813 0.274 1.13 0.249 0.306 0.626 0.499 1.048 0.499 0.001 0 0.002 0 0.003 0h26.594c0.001 0 0.002 0 0.003 0 0.422 0 0.798-0.194 1.046-0.497l0.002-0.002c0.189-0.23 0.304-0.528 0.304-0.853 0-0.098-0.011-0.194-0.030-0.287l0.002 0.009-0.264-1.269c-0.135-0.618-0.676-1.074-1.325-1.077h-7.729c0.107-0.351 0.237-0.818 0.387-1.396h0.509c0.001 0 0.001 0 0.002 0 1.569 0 3.082-0.242 4.503-0.692l-0.106 0.029 2.913-0.367c0.177 0.314 0.508 0.522 0.887 0.522h1.907c0.561-0 1.016-0.455 1.017-1.017v-6.054c0-0.56-0.456-1.017-1.017-1.017zM11.646 1.326c0.048-0.223 0.244-0.387 0.478-0.387 0 0 0.001 0 0.001 0h5.178c0 0 0.001 0 0.001 0 0.234 0 0.429 0.165 0.476 0.384l0.001 0.003c0.007 0.031 0.011 0.066 0.011 0.102 0 0.102-0.031 0.196-0.084 0.274l0.001-0.002-0.539 0.803h-4.912l-0.539-0.803c-0.052-0.076-0.083-0.17-0.083-0.271 0-0.036 0.004-0.072 0.012-0.106l-0.001 0.003zM12.117 6.768c0.674-0.446 1.113-1.202 1.113-2.059 0-0.003 0-0.005 0-0.008v0c0-0 0-0 0-0 0-0.466-0.129-0.901-0.354-1.272l0.006 0.011h3.663c-0.218 0.36-0.347 0.796-0.347 1.261 0 0 0 0 0 0v0c0 0.837 0.416 1.609 1.113 2.066 0.287 0.189 0.603 0.419 0.926 0.695h-7.043c0.274-0.237 0.575-0.465 0.89-0.675l0.033-0.021zM28.154 24.775l0.264 1.268c0.006 0.026 0.009 0.056 0.009 0.087 0 0.099-0.035 0.191-0.094 0.262l0.001-0.001c-0.076 0.094-0.191 0.153-0.32 0.153-0.001 0-0.002 0-0.003 0h-26.594c-0.001 0-0.001 0-0.002 0-0.129 0-0.244-0.060-0.32-0.153l-0.001-0.001c-0.058-0.070-0.094-0.161-0.094-0.261 0-0.030 0.003-0.060 0.010-0.089l-0 0.003 0.264-1.269c0.040-0.191 0.211-0.33 0.407-0.33h26.066c0.196 0 0.367 0.139 0.407 0.331zM19.034 23.506h-8.64c-0.193-0.575-0.683-2.285-1.8-7.275-0.471-2.104-0.358-4.009 0.333-5.676h1.726c0.259 0 0.469-0.21 0.469-0.469s-0.21-0.469-0.469-0.469v0h-1.262c0.265-0.457 0.559-0.861 0.865-1.217h8.919c0.306 0.357 0.6 0.761 0.863 1.216h-7.507c-0.259 0-0.469 0.21-0.469 0.469s0.21 0.469 0.469 0.469v0h6.211c-0.070 0.167-0.111 0.361-0.111 0.565 0 0.128 0.016 0.252 0.046 0.371l-0.002-0.010c0.096 0.39 0.338 0.719 0.681 0.927l0.806 0.49h-5.21c-0.827 0-1.498 0.636-1.527 1.449-0.008 0.217 0.030 0.427 0.109 0.621h-0.481c-0.002 0-0.004 0-0.006 0-0.423 0-0.805 0.176-1.076 0.459l-0.001 0.001c-0.261 0.269-0.422 0.637-0.422 1.043 0 0.663 0.431 1.226 1.028 1.423l0.011 0.003c-0.091 0.188-0.144 0.409-0.144 0.642 0 0.83 0.672 1.503 1.502 1.505h0.71c-0.069 0.167-0.11 0.361-0.11 0.564 0 0.83 0.672 1.503 1.502 1.505h3.389c-0.197 0.746-0.324 1.163-0.402 1.396zM25.154 20.523c-0.030 0.004-0.058 0.010-0.084 0.018l0.003-0.001c-1.243 0.402-2.674 0.633-4.158 0.633-0.001 0-0.001 0-0.002 0h-4.866c-0.305-0.010-0.548-0.26-0.548-0.566s0.243-0.556 0.547-0.566l0.001-0h3.073c0.259 0 0.469-0.21 0.469-0.469s-0.21-0.469-0.469-0.469v0h-5.176c-0.299-0.017-0.536-0.264-0.536-0.566s0.236-0.549 0.534-0.566l0.002-0h5.176c0.259 0 0.469-0.21 0.469-0.469s-0.21-0.469-0.469-0.469v0h-6.043c-0.315 0-0.579-0.245-0.59-0.545-0-0.007-0-0.015-0-0.023 0-0.311 0.252-0.564 0.564-0.564 0.001 0 0.002 0 0.002 0h6.068c0.259 0 0.469-0.21 0.469-0.469s-0.21-0.469-0.469-0.469v0h-4.193c-0.001 0-0.001 0-0.002 0-0.159 0-0.303-0.066-0.405-0.173l-0-0c-0.098-0.101-0.159-0.24-0.159-0.392 0-0.008 0-0.016 0-0.023l-0 0.001c0.011-0.3 0.275-0.545 0.59-0.545h6.461c0.266 0 0.494-0.173 0.566-0.429 0.014-0.048 0.023-0.104 0.023-0.161 0-0.211-0.112-0.396-0.281-0.498l-0.003-0.001-1.876-1.139c-0.127-0.077-0.219-0.2-0.255-0.345l-0.001-0.004c-0.010-0.040-0.016-0.086-0.016-0.133 0-0.313 0.254-0.567 0.567-0.567 0.108 0 0.208 0.030 0.294 0.082l-0.003-0.001 4.786 2.907c0.197 0.12 0.372 0.271 0.52 0.45 0.383 0.463 0.875 0.741 2.362 0.903v5.255l-2.942 0.371zM31.099 20.586c0 0.044-0.035 0.079-0.079 0.079v0h-1.907c-0.043-0-0.079-0.035-0.079-0.079v-6.055c0-0.043 0.035-0.079 0.079-0.079h1.907c0.043 0 0.079 0.035 0.079 0.079v6.054zM22.477 30.488l-2.441-1.965c-0.080-0.064-0.182-0.103-0.294-0.103-0.259 0-0.469 0.21-0.469 0.469 0 0.147 0.068 0.279 0.174 0.365l0.001 0.001 2.248 1.808h-13.965l2.253-1.811c0.107-0.087 0.175-0.218 0.175-0.365 0-0.259-0.21-0.469-0.469-0.469-0.112 0-0.214 0.039-0.295 0.104l0.001-0.001-2.446 1.967c-0.195 0.155-0.319 0.393-0.319 0.659 0 0.103 0.018 0.201 0.052 0.292l-0.002-0.006c0.121 0.345 0.436 0.567 0.802 0.567h14.461c0.366 0 0.68-0.223 0.802-0.567 0.032-0.085 0.050-0.183 0.050-0.286 0-0.266-0.124-0.503-0.317-0.657l-0.002-0.001z"></path>
</symbol>
<symbol id="Alcohol" viewBox="0 0 32 32">
<path d="M7.734 2.7c-0.262 0-0.474 0.212-0.474 0.474v0.201c0.009 0.255 0.218 0.458 0.475 0.458s0.465-0.203 0.475-0.458l0-0.001v-0.201c0-0.262-0.212-0.475-0.474-0.475h-0zM6.354 4.281h-0.201c-0.262 0-0.475 0.213-0.475 0.475s0.213 0.475 0.475 0.475v0h0.201c0.262 0 0.475-0.213 0.475-0.475s-0.213-0.475-0.475-0.475v0zM7.094 3.444l-0.142-0.142c-0.086-0.086-0.205-0.139-0.336-0.139-0.262 0-0.475 0.213-0.475 0.475 0 0.131 0.053 0.25 0.139 0.336l0.142 0.142c0.086 0.086 0.205 0.14 0.336 0.14s0.25-0.053 0.336-0.14l0-0c0.086-0.086 0.139-0.205 0.139-0.336s-0.053-0.25-0.139-0.336v0zM7.094 5.397c-0.086-0.086-0.205-0.139-0.336-0.139s-0.25 0.053-0.336 0.139v0l-0.142 0.142c-0.086 0.086-0.139 0.205-0.139 0.336 0 0.262 0.213 0.475 0.475 0.475 0.131 0 0.25-0.053 0.336-0.139l0.142-0.142c0.086-0.086 0.139-0.205 0.139-0.336s-0.053-0.25-0.139-0.336v0z"></path>
<path d="M28.455 3.916h-16.040c-0.194-1.058-0.714-1.97-1.452-2.651l-0.003-0.003c-0.843-0.782-1.975-1.262-3.22-1.262-0.002 0-0.004 0-0.006 0h0c-2.622 0-4.756 2.134-4.756 4.756s2.134 4.756 4.756 4.756c0.482 0 0.954-0.073 1.411-0.215 0.709 0.67 1.586 1.171 2.561 1.431l0.042 0.009c0.645 0.172 1.133 0.697 1.25 1.35l0.002 0.010 0.604 3.496c0.219 1.26 0.928 2.323 1.919 3.005l0.015 0.010c0.785 0.537 1.253 1.414 1.253 2.345v7.125c-0.359 0.23-0.594 0.627-0.594 1.079 0 0.014 0 0.028 0.001 0.041l-0-0.002c-1.186 0.242-2.163 0.466-2.905 0.663-0.505 0.135-0.887 0.254-1.166 0.365-0.259 0.102-0.743 0.293-0.743 0.735 0 0.594 0.773 0.696 1.394 0.778 0.534 0.070 1.273 0.129 2.198 0.174 1.562 0.077 3.145 0.089 3.16 0.089h0.008c0.016 0 1.598-0.013 3.16-0.089 0.925-0.045 1.665-0.103 2.198-0.174 0.621-0.082 1.394-0.183 1.394-0.778 0-0.47-0.434-0.713-2.018-1.129-0.96-0.251-2.156-0.506-3.015-0.68-0.001-0.343-0.137-0.663-0.374-0.898v-7.301c0-0.93 0.469-1.807 1.253-2.345 1.007-0.692 1.716-1.755 1.931-2.988l0.004-0.027 0.603-3.496c0.119-0.663 0.607-1.188 1.239-1.357l0.012-0.003c2.135-0.57 3.778-2.233 4.307-4.339l0.009-0.041c0.002-0.008 0.005-0.016 0.006-0.024 0.109-0.453 0.168-0.924 0.168-1.406v-0.443c0-0.313-0.253-0.567-0.566-0.567h-0zM7.734 8.562c-2.101-0.003-3.803-1.705-3.806-3.805v-0c0.003-2.101 1.705-3.803 3.805-3.806h0c0.96 0 1.877 0.358 2.581 1.009 0.552 0.51 0.952 1.178 1.126 1.932l0.005 0.026h-0.487c-0.387-1.445-1.684-2.492-3.225-2.494h-0c-1.84 0.002-3.332 1.494-3.334 3.334v0c0.003 1.841 1.496 3.332 3.338 3.332 0.143 0 0.285-0.009 0.423-0.027l-0.017 0.002c0.091 0.149 0.189 0.293 0.292 0.433-0.211 0.042-0.454 0.066-0.703 0.066h-0zM9.189 3.303c-0.086-0.086-0.205-0.139-0.336-0.139s-0.25 0.053-0.336 0.139v0l-0.142 0.142c-0.086 0.086-0.139 0.204-0.139 0.335 0 0.049 0.007 0.096 0.021 0.14l-0.001-0.003h-0.43c-0.313 0.001-0.566 0.254-0.566 0.567 0 0 0 0 0 0v0 0.443c0 0.482 0.058 0.952 0.167 1.406l0.006 0.026c0.066 0.267 0.149 0.529 0.249 0.781-1.293-0.031-2.33-1.086-2.331-2.383v-0c0-1.315 1.069-2.385 2.384-2.385 1.015 0.001 1.881 0.635 2.226 1.528l0.006 0.016h-0.73c0.057-0.077 0.091-0.174 0.091-0.279 0-0.131-0.053-0.249-0.139-0.335v0zM19.606 30.069c1.669 0.336 2.717 0.59 3.373 0.774-1.2 0.118-3.124 0.195-4.838 0.208-1.714-0.013-3.638-0.090-4.838-0.208 0.627-0.176 1.613-0.417 3.158-0.731 0.398-0.087 0.691-0.437 0.691-0.855 0-0.026-0.001-0.052-0.003-0.078l0 0.003c-0.001-0.008-0.001-0.017-0.001-0.025 0-0.15 0.101-0.276 0.239-0.315l0.002-0.001c0.205-0.056 0.353-0.24 0.353-0.458 0-0 0-0 0-0v0-7.43c-0.001-0.648-0.166-1.258-0.456-1.79l0.010 0.020c0.265 0.017 0.555 0.026 0.845 0.026s0.58-0.009 0.845-0.026c-0.28 0.512-0.445 1.122-0.446 1.771v7.526c0 0.162 0.083 0.314 0.221 0.401 0.093 0.058 0.153 0.16 0.153 0.276 0 0.007-0 0.015-0.001 0.022l0-0.001c-0.001 0.014-0.001 0.031-0.001 0.047 0 0.416 0.296 0.764 0.688 0.843l0.006 0.001zM28.072 4.926c0 0.286-0.024 0.566-0.070 0.84h-14.293c-0.262 0-0.475 0.213-0.475 0.475s0.213 0.475 0.475 0.475v0h14.036c-0.588 1.526-1.852 2.675-3.415 3.093l-0.035 0.008c-1.004 0.268-1.764 1.085-1.946 2.102l-0.002 0.016-0.603 3.495c-0.174 1-0.737 1.844-1.524 2.385l-0.012 0.008c-0.127 0.087-0.505 0.291-0.574 0.322-0.376 0.148-2.602 0.148-2.98 0-0.232-0.116-0.421-0.223-0.603-0.339l0.028 0.017c-0.8-0.549-1.363-1.393-1.533-2.371l-0.003-0.022-0.603-3.495c-0.184-1.033-0.944-1.849-1.93-2.113l-0.019-0.004c-0.926-0.246-1.72-0.722-2.344-1.364l-0.001-0.001c-0.47-0.483-0.845-1.061-1.093-1.702l-0.012-0.035h2.962c0.255-0.009 0.458-0.218 0.458-0.475s-0.203-0.465-0.458-0.475l-0.001-0h-3.219c-0.045-0.253-0.070-0.544-0.070-0.841v-0.061h19.863v0.061z"></path>
</symbol>
<symbol id="Housing" viewBox="0 0 32 32">
<path d="M30.414 11.952h-0.636v-2.363c-0.002-1.398-1.135-2.532-2.533-2.533h-9.181c-0.849 0-1.6 0.419-2.059 1.060l-0.005 0.008c-0.464-0.649-1.216-1.067-2.065-1.067h-5.767c-0.259 0-0.469 0.21-0.469 0.469s0.21 0.469 0.469 0.469v0h5.767c0.881 0.001 1.595 0.715 1.596 1.596v4.688c-0.010-0.010-0.021-0.018-0.030-0.027-0.542-0.503-1.268-0.813-2.068-0.817h-7.809c-0.050-0.644-0.473-1.178-1.052-1.389l-0.011-0.004c-0.154-0.056-0.331-0.088-0.516-0.088-0.001 0-0.003 0-0.004 0h-0.881v-2.363c0.001-0.881 0.715-1.595 1.595-1.596h1.538c0.259 0 0.469-0.21 0.469-0.469s-0.21-0.469-0.469-0.469v0h-1.539c-1.398 0.002-2.532 1.135-2.533 2.533v2.363h-0.635c-0.875 0.001-1.584 0.71-1.586 1.586v4.894c0.002 1.823 1.48 3.301 3.303 3.303h0.236l-0.514 1.382c-0.323 0.871 0.343 1.827 1.27 1.827h0.754c0.422 0 0.826-0.201 1.081-0.537l2.021-2.672h15.699l2.021 2.671c0.254 0.337 0.658 0.538 1.081 0.538h0.754c0.929 0 1.594-0.957 1.27-1.827l-0.514-1.382h0.236c1.823-0.002 3.301-1.48 3.303-3.303v-4.894c-0.001-0.875-0.71-1.584-1.586-1.586h-0zM16.469 9.589c0.001-0.881 0.715-1.595 1.596-1.596h9.181c0.881 0.001 1.594 0.715 1.595 1.596v2.363h-0.882c-0.623 0-1.221 0.4-1.463 0.974-0.068 0.161-0.109 0.333-0.12 0.507h-7.807c-0.815 0.005-1.553 0.325-2.101 0.845l0.001-0.001v-4.688zM5.629 14.37h7.804c1.159 0.001 2.098 0.94 2.099 2.099v0.666h-9.904v-2.766zM5.383 23.841c-0.077 0.101-0.198 0.165-0.333 0.166h-0.754c-0.23-0.003-0.416-0.19-0.416-0.421 0-0.051 0.009-0.1 0.026-0.145l-0.001 0.003 0.635-1.709h2.437l-1.593 2.106zM27.706 24.006h-0.754c-0.136-0-0.256-0.065-0.332-0.165l-0.001-0.001-1.593-2.106h2.437l0.635 1.709c0.015 0.042 0.024 0.091 0.024 0.141 0 0.231-0.185 0.418-0.415 0.422h-0zM28.698 20.797h-25.395c-1.306-0.001-2.364-1.059-2.366-2.365v-4.894c0-0.358 0.291-0.649 0.649-0.649h2.456c0.358 0 0.649 0.291 0.649 0.649v4.067c0 0.259 0.21 0.469 0.469 0.469h17.217c0.259 0 0.469-0.21 0.469-0.469s-0.21-0.469-0.469-0.469v0h-5.907v-0.667c0.001-1.159 0.94-2.098 2.099-2.099h7.805v2.766h-2.121c-0.259 0-0.469 0.21-0.469 0.469s0.21 0.469 0.469 0.469v0h2.59c0.259 0 0.469-0.21 0.469-0.469v0-4.067c0-0.358 0.291-0.649 0.649-0.649h2.455c0.358 0 0.649 0.291 0.649 0.649v4.894c-0.001 1.306-1.059 2.364-2.365 2.366h-0z"></path>
</symbol>
<symbol id="delete" viewBox="0 0 32 32">
<path style="fill: var(--color2, #52555f)" d="M28.992 7.152l-0.706-2.117c-0.268-0.791-1.004-1.349-1.869-1.349-0.001 0-0.002 0-0.003 0h-5.938v-1.932c-0.001-0.968-0.785-1.752-1.753-1.753h-5.435c-0.968 0.001-1.752 0.785-1.753 1.753v1.933h-5.938c-0.85 0-1.602 0.542-1.872 1.349l-0.706 2.117c-0.051 0.149-0.080 0.32-0.080 0.498 0 0.876 0.708 1.586 1.584 1.589h0.738l1.627 20.101c0.121 1.492 1.387 2.66 2.88 2.66h12.805c1.493 0 2.761-1.168 2.88-2.66l1.627-20.101h0.409c0.875-0.003 1.584-0.713 1.584-1.589 0-0.178-0.029-0.349-0.083-0.509l0.003 0.011zM13.41 1.876h5.191v1.81h-5.191v-1.81zM23.586 29.189c-0.046 0.524-0.482 0.932-1.013 0.935h-12.804c-0.532-0.003-0.967-0.411-1.013-0.931l-0-0.004-1.614-19.95h18.057l-1.612 19.95zM4.924 7.365l0.58-1.737c0.013-0.039 0.049-0.067 0.092-0.068h20.818c0.043 0 0.080 0.027 0.092 0.068l0.58 1.737h-22.162z"></path>
<path style="fill: var(--color2, #52555f)" d="M20.596 29.122l0.048 0.002c0 0 0.001 0 0.001 0 0.501 0 0.909-0.393 0.936-0.887l0-0.002 0.88-16.9c0.001-0.015 0.001-0.032 0.001-0.049 0-0.518-0.42-0.937-0.937-0.937-0.5 0-0.909 0.392-0.936 0.886l-0 0.002-0.882 16.9c-0.001 0.015-0.001 0.032-0.001 0.049 0 0.501 0.393 0.91 0.888 0.936l0.002 0zM10.471 28.236c0.028 0.496 0.437 0.888 0.937 0.888 0.518 0 0.938-0.42 0.938-0.938 0-0.018-0.001-0.036-0.001-0.053l0 0.002-0.923-16.9c-0.028-0.495-0.436-0.887-0.936-0.887-0.518 0-0.937 0.42-0.937 0.937 0 0.018 0.001 0.036 0.001 0.053l-0-0.002 0.923 16.9zM16.016 29.124c0.517 0 0.937-0.419 0.937-0.937v0-16.901c0-0.518-0.42-0.938-0.938-0.938s-0.938 0.42-0.938 0.938v16.901c0 0.516 0.421 0.937 0.939 0.937z"></path>
</symbol>
<symbol id="go_back" viewBox="0 0 32 32">
<path style="fill: var(--color1, #ff751d)" d="M28 14.667h-18.893l4.773-4.787-1.88-1.88-8 8 8 8 1.88-1.88-4.773-4.787h18.893v-2.667z"></path>
</symbol>
<symbol id="Health" viewBox="0 0 32 32">
<path d="M31.882 17.829l-0.569-8.305c-0.038-0.554-0.296-1.042-0.687-1.381l-0.003-0.002c-0.349-0.306-0.81-0.493-1.314-0.493-0.053 0-0.106 0.002-0.158 0.006l0.007-0c-1.047 0.081-1.866 0.95-1.866 2.011 0 0.006 0 0.012 0 0.017v-0.001l0.067 6.77-2.933 3.757c-0.348 0.439-0.882 0.719-1.481 0.719-0.166 0-0.328-0.022-0.482-0.062l0.013 0.003 3.191-4.144c0.228-0.297 0.366-0.674 0.366-1.083 0-0.52-0.222-0.988-0.576-1.314l-0.001-0.001c-0.312-0.287-0.731-0.463-1.19-0.463-0.046 0-0.091 0.002-0.136 0.005l0.006-0c-0.502 0.034-0.943 0.274-1.242 0.635l-0.002 0.003-4.821 5.806c-0.756 0.906-1.215 2.082-1.215 3.366 0 0.017 0 0.034 0 0.051l-0-0.003 0.075 7.71c0.003 0.307 0.252 0.555 0.56 0.555l8.028 0.011c0.31-0 0.56-0.251 0.56-0.561 0-0.017-0.001-0.034-0.002-0.051l0 0.002-0.327-3.774 5.329-7.082c0.507-0.668 0.812-1.514 0.812-2.43 0-0.097-0.003-0.193-0.010-0.289l0.001 0.013zM30.183 19.861l-5.458 7.254c-0.070 0.093-0.113 0.21-0.113 0.338 0 0.017 0.001 0.034 0.002 0.050l-0-0.002 0.293 3.378-6.86-0.009-0.069-7.155c-0-0.012-0-0.025-0-0.039 0-1.010 0.361-1.936 0.961-2.655l-0.005 0.007 4.821-5.806c0.116-0.139 0.279-0.223 0.459-0.235 0.181-0.013 0.354 0.047 0.487 0.169 0.251 0.228 0.285 0.617 0.078 0.885l-3.621 4.703c-0.073 0.094-0.117 0.213-0.117 0.342 0 0.194 0.099 0.365 0.249 0.466l0.002 0.001c1.296 0.859 3.061 0.573 4.018-0.653l3.054-3.911c0.074-0.094 0.119-0.215 0.119-0.345 0-0.002 0-0.004-0-0.006v0l-0.069-6.967c-0-0.002-0-0.005-0-0.007 0-0.469 0.362-0.854 0.823-0.89l0.003-0c0.239-0.017 0.469 0.059 0.649 0.215s0.289 0.374 0.305 0.612l0.57 8.305c0.004 0.060 0.007 0.129 0.007 0.199 0 0.662-0.221 1.273-0.592 1.763l0.005-0.007zM9.108 14.503c-0.301-0.364-0.742-0.604-1.239-0.637l-0.005-0c-0.039-0.003-0.084-0.005-0.129-0.005-0.46 0-0.879 0.176-1.192 0.465l0.001-0.001c-0.355 0.328-0.577 0.796-0.577 1.315 0 0.409 0.138 0.786 0.369 1.088l-0.003-0.004 3.191 4.144c-0.141 0.038-0.302 0.059-0.468 0.059-0.599 0-1.133-0.279-1.478-0.715l-0.003-0.004-2.934-3.757 0.067-6.77c0-0.005 0-0.011 0-0.016 0-1.061-0.819-1.93-1.859-2.011l-0.007-0c-0.045-0.004-0.098-0.006-0.151-0.006-0.504 0-0.965 0.187-1.317 0.495l0.002-0.002c-0.393 0.341-0.651 0.829-0.688 1.377l-0 0.006-0.569 8.305c-0.006 0.083-0.009 0.179-0.009 0.277 0 0.916 0.305 1.762 0.819 2.44l-0.007-0.010 5.329 7.082-0.327 3.774c-0.001 0.015-0.002 0.032-0.002 0.049 0 0.309 0.251 0.56 0.56 0.56 0 0 0 0 0 0l8.028-0.011c0.307-0 0.557-0.248 0.56-0.555v-0l0.074-7.71c0-0.015 0-0.032 0-0.049 0-1.283-0.459-2.46-1.221-3.374l0.007 0.008-4.821-5.806zM13.952 30.868l-6.86 0.010 0.293-3.378c0.001-0.015 0.002-0.031 0.002-0.048 0-0.127-0.042-0.245-0.114-0.339l0.001 0.001-5.457-7.254c-0.366-0.483-0.587-1.094-0.587-1.756 0-0.070 0.002-0.14 0.007-0.209l-0.001 0.009 0.569-8.305c0.017-0.245 0.131-0.461 0.303-0.611l0.001-0.001c0.155-0.136 0.359-0.219 0.582-0.219 0.024 0 0.047 0.001 0.070 0.003l-0.003-0c0.468 0.034 0.831 0.429 0.826 0.898l-0.069 6.967c-0 0.002-0 0.004-0 0.006 0 0.131 0.045 0.251 0.12 0.346l-0.001-0.001 3.053 3.911c0.958 1.226 2.722 1.513 4.018 0.653 0.152-0.102 0.251-0.273 0.251-0.467 0-0.129-0.044-0.249-0.117-0.344l0.001 0.001-3.621-4.703c-0.084-0.11-0.135-0.248-0.135-0.399 0-0.192 0.082-0.364 0.212-0.485l0-0c0.134-0.122 0.307-0.182 0.487-0.17s0.343 0.097 0.459 0.235l4.821 5.806c0.595 0.713 0.956 1.639 0.956 2.649 0 0.014-0 0.027-0 0.041l0-0.002-0.069 7.155zM26.986 6.31c0-0.005 0-0.011 0-0.017 0-1.737-0.707-3.309-1.848-4.445l-0-0c-1.136-1.142-2.708-1.848-4.445-1.848-0.006 0-0.012 0-0.018 0h0.001c-1.686 0-3.27 0.657-4.462 1.848l-0.213 0.214-0.213-0.214c-1.136-1.142-2.708-1.848-4.445-1.848-0.006 0-0.012 0-0.019 0h0.001c-1.686 0-3.27 0.657-4.462 1.848-2.461 2.461-2.461 6.464 0 8.924l8.741 8.741c0.101 0.102 0.242 0.165 0.397 0.165s0.295-0.063 0.397-0.165v0l8.741-8.742c1.142-1.136 1.849-2.708 1.849-4.445 0-0.006 0-0.012-0-0.018v0.001zM16 18.323l-8.344-8.345c-2.023-2.023-2.023-5.314 0-7.337 0.934-0.939 2.226-1.52 3.655-1.52 0.005 0 0.010 0 0.014 0h-0.001c0.004 0 0.009-0 0.014-0 1.428 0 2.721 0.581 3.655 1.52l0 0 0.61 0.609c0.101 0.102 0.242 0.165 0.397 0.165s0.295-0.063 0.397-0.165v0l0.61-0.61c0.934-0.939 2.227-1.52 3.655-1.52 0.005 0 0.010 0 0.014 0h-0.001c0.004 0 0.009-0 0.014-0 1.428 0 2.721 0.581 3.655 1.52l0 0c0.939 0.934 1.52 2.227 1.52 3.655 0 0.005 0 0.010-0 0.014v-0.001c0 0.004 0 0.009 0 0.014 0 1.429-0.581 2.721-1.52 3.655l-8.344 8.344z"></path>
</symbol>
<symbol id="invoice" viewBox="0 0 32 32">
<path d="M30.679 0h-29.358c-0.451 0-0.819 0.369-0.819 0.819s0.369 0.819 0.819 0.819h1.768v29.521c0 0.301 0.164 0.581 0.43 0.724s0.587 0.13 0.84-0.041l3.557-2.369 3.57 2.376c0.127 0.087 0.285 0.138 0.454 0.138s0.327-0.052 0.457-0.14l-0.003 0.002 3.557-2.369 3.571 2.376c0.127 0.086 0.285 0.138 0.454 0.138s0.326-0.052 0.457-0.14l-0.003 0.002 3.557-2.369 3.571 2.376c0.137 0.089 0.294 0.137 0.45 0.137 0.13 0 0.266-0.034 0.389-0.095 0.266-0.143 0.43-0.423 0.43-0.724l-0.014-29.522h1.864c0.451 0 0.819-0.369 0.819-0.819s-0.369-0.84-0.819-0.84zM27.197 29.631l-2.751-1.83c-0.128-0.087-0.285-0.138-0.454-0.138s-0.327 0.052-0.457 0.14l0.003-0.002-3.557 2.376-3.571-2.376c-0.127-0.086-0.285-0.138-0.454-0.138s-0.326 0.052-0.457 0.14l0.003-0.002-3.557 2.369-3.571-2.369c-0.127-0.087-0.285-0.138-0.454-0.138s-0.327 0.052-0.457 0.14l0.003-0.002-2.738 1.823v-27.992h22.462l0.007 27.999z"></path>
<path d="M8.497 13.081h8.582c0.45 0 0.819-0.369 0.819-0.819s-0.369-0.819-0.819-0.819h-8.582c-0.45 0-0.819 0.369-0.819 0.819 0 0.001 0 0.001 0 0.002 0 0.451 0.366 0.817 0.817 0.817 0.001 0 0.002 0 0.002 0h-0zM8.497 15.929h6.431c0.451 0 0.819-0.369 0.819-0.819s-0.369-0.819-0.819-0.819h-6.431c-0.45 0-0.819 0.369-0.819 0.819 0 0.001 0 0.001 0 0.002 0 0.451 0.366 0.817 0.817 0.817 0.001 0 0.002 0 0.002 0h-0zM21.366 13.081h2.144c0.45 0 0.819-0.369 0.819-0.819s-0.369-0.819-0.819-0.819h-2.145c-0.45 0-0.819 0.369-0.819 0.819 0 0.001 0 0.001 0 0.002 0 0.451 0.366 0.817 0.817 0.817 0.001 0 0.002 0 0.002 0h-0zM21.366 15.929h2.144c0.45 0 0.819-0.369 0.819-0.819s-0.369-0.819-0.819-0.819h-2.145c-0.45 0-0.819 0.369-0.819 0.819 0 0.001 0 0.001 0 0.002 0 0.451 0.366 0.817 0.817 0.817 0.001 0 0.002 0 0.002 0h-0zM8.497 6.506h8.582c0.45 0 0.819-0.369 0.819-0.819s-0.369-0.819-0.819-0.819h-8.582c-0.45 0-0.819 0.369-0.819 0.819 0 0.001 0 0.001 0 0.002 0 0.451 0.366 0.817 0.817 0.817 0.001 0 0.002 0 0.002 0h-0zM8.497 9.347h6.431c0.451 0 0.819-0.369 0.819-0.819s-0.369-0.819-0.819-0.819h-6.431c-0.45 0-0.819 0.369-0.819 0.819 0 0.001 0 0.001 0 0.002 0 0.451 0.366 0.817 0.817 0.817 0.001 0 0.002 0 0.002 0h-0zM21.366 6.506h2.144c0.45 0 0.819-0.369 0.819-0.819s-0.369-0.819-0.819-0.819h-2.145c-0.45 0-0.819 0.369-0.819 0.819 0 0.001 0 0.001 0 0.002 0 0.451 0.366 0.817 0.817 0.817 0.001 0 0.002 0 0.002 0h-0zM21.366 9.347h2.144c0.45 0 0.819-0.369 0.819-0.819s-0.369-0.819-0.819-0.819h-2.145c-0.45 0-0.819 0.369-0.819 0.819 0 0.001 0 0.001 0 0.002 0 0.451 0.366 0.817 0.817 0.817 0.001 0 0.002 0 0.002 0h-0zM8.497 19.738h8.582c0.45 0 0.819-0.369 0.819-0.819s-0.369-0.819-0.819-0.819h-8.582c-0.45 0-0.819 0.369-0.819 0.819 0 0 0 0.001 0 0.002 0 0.451 0.366 0.817 0.817 0.817 0.001 0 0.002 0 0.002 0h-0zM8.497 22.578h6.431c0.451 0 0.819-0.369 0.819-0.819s-0.369-0.819-0.819-0.819h-6.431c-0.45 0-0.819 0.369-0.819 0.819 0 0.001 0 0.001 0 0.002 0 0.451 0.366 0.817 0.817 0.817 0.001 0 0.002 0 0.002 0h-0zM21.366 19.738h2.144c0.45 0 0.819-0.369 0.819-0.819s-0.369-0.819-0.819-0.819h-2.145c-0.45 0-0.819 0.369-0.819 0.819 0 0 0 0.001 0 0.002 0 0.451 0.366 0.817 0.817 0.817 0.001 0 0.002 0 0.002 0h-0zM21.366 22.578h2.144c0.45 0 0.819-0.369 0.819-0.819s-0.369-0.819-0.819-0.819h-2.145c-0.45 0-0.819 0.369-0.819 0.819 0 0.001 0 0.001 0 0.002 0 0.451 0.366 0.817 0.817 0.817 0.001 0 0.002 0 0.002 0h-0z"></path>
</symbol>
<symbol id="Entertainment" viewBox="0 0 32 32">
<path d="M30.281 15.724l-1.286-1.286v-12.227l1.080-1.080c0.102-0.099 0.165-0.236 0.165-0.389 0-0.299-0.243-0.542-0.542-0.542-0.153 0-0.291 0.063-0.389 0.165l-0 0-1.081 1.078h-12.229l-1.285-1.285c-0.099-0.105-0.239-0.17-0.395-0.17-0.3 0-0.542 0.243-0.542 0.542 0 0.155 0.065 0.296 0.17 0.395l0 0 1.23 1.23-3.815 16.168c-0.211 0.261-0.339 0.597-0.339 0.963 0 0.743 0.526 1.363 1.226 1.507l0.010 0.002 2.433 0.494c0.469 0.097 0.854 0.392 1.072 0.792l0.004 0.008c0.223 0.415 0.249 0.903 0.072 1.339-0.24 0.583-0.804 0.985-1.461 0.985-0.116 0-0.229-0.013-0.338-0.036l0.010 0.002-9.116-1.931c-0.173-0.038-0.372-0.060-0.576-0.060-1.214 0-2.249 0.772-2.638 1.853l-0.006 0.020c-0.1 0.275-0.157 0.593-0.157 0.924 0 0.513 0.138 0.993 0.379 1.407l-0.007-0.013c0.404 0.694 1.079 1.191 1.877 1.35l0.018 0.003 0.038 0.007c0.73 0.143 1.331 0.599 1.667 1.22l0.006 0.013c0.181 0.33 0.287 0.723 0.287 1.141 0 0.338-0.070 0.659-0.195 0.951l0.006-0.016c-0.024 0.059-0.039 0.128-0.039 0.201 0 0.299 0.243 0.542 0.542 0.542 0.22 0 0.41-0.131 0.495-0.32l0.001-0.003c0.173-0.4 0.274-0.865 0.274-1.354 0-0.605-0.154-1.175-0.426-1.671l0.009 0.018c-0.496-0.918-1.367-1.579-2.401-1.782l-0.022-0.004-0.038-0.007c-0.797-0.157-1.389-0.85-1.389-1.681 0-0.203 0.035-0.398 0.1-0.579l-0.004 0.012c0.242-0.674 0.875-1.147 1.619-1.147 0.125 0 0.246 0.013 0.363 0.039l-0.011-0.002 9.116 1.931c0.166 0.037 0.357 0.058 0.553 0.058 1.109 0 2.060-0.679 2.459-1.645l0.006-0.018c0.124-0.296 0.196-0.64 0.196-1 0-0.461-0.118-0.895-0.324-1.272l0.007 0.014c-0.374-0.688-1.024-1.186-1.798-1.347l-0.017-0.003-2.433-0.494c-0.167-0.033-0.299-0.155-0.346-0.313l-0.001-0.003c-0.013-0.040-0.020-0.087-0.020-0.135 0-0.080 0.021-0.156 0.058-0.221l-0.001 0.002 16.118-3.803 1.231 1.23c0.098 0.098 0.233 0.159 0.383 0.159s0.285-0.061 0.383-0.159v0c0.098-0.098 0.159-0.234 0.159-0.383s-0.061-0.285-0.159-0.383v0zM27.145 2.528l-5.031 5.030-5.030-5.030h10.061zM16.081 3.057l5.267 5.268-8.522 8.522 3.254-13.79zM13.593 17.613l8.521-8.522 5.268 5.267-13.79 3.254zM27.911 13.354l-5.030-5.030 5.030-5.030v10.059z"></path>
</symbol>
<symbol id="logout" viewBox="0 0 32 32">
<path style="fill: var(--color3, #cbccd0)" d="M20 28h-16v-24h16v2h4v-6h-24v32h24v-6h-4v2z"></path>
<path style="fill: var(--color3, #cbccd0)" d="M24.586 8.586l-2.828 2.828 2.586 2.586h-10.344v4h10.344l-2.586 2.586 2.828 2.828 7.414-7.414-7.414-7.414z"></path>
</symbol>
<symbol id="Products" viewBox="0 0 35 32">
<path d="M35.352 25.027l-0.135-0.728c-0.088-0.46-0.487-0.803-0.966-0.803-0.063 0-0.125 0.006-0.185 0.017l0.006-0.001-2.746 0.505 1.243-0.832c0.264-0.178 0.436-0.477 0.436-0.815 0-0.177-0.047-0.343-0.129-0.486l0.003 0.005-0.376-0.666c-0.131-0.227-0.343-0.395-0.596-0.465l-0.007-0.002c-0.076-0.021-0.162-0.033-0.252-0.033-0.046 0-0.091 0.003-0.134 0.009l0.005-0.001c0.139-0.764 0.21-1.545 0.21-2.34 0-0.353-0.212-0.656-0.515-0.79 0.197-0.455 0.311-0.985 0.311-1.542 0-0.527-0.103-1.031-0.289-1.491l0.010 0.027c-0.065-0.162-0.19-0.287-0.347-0.351l-0.004-0.002c-0.433-0.178-0.936-0.282-1.463-0.282-0.068 0-0.136 0.002-0.203 0.005l0.009-0c-0.075-1.45-1.268-2.597-2.729-2.6h-0c-0 0-0 0-0.001 0-0.199 0-0.392 0.021-0.579 0.062l0.018-0.003c0.038-0.213 0.059-0.457 0.059-0.707 0-0.566-0.11-1.107-0.311-1.602l0.010 0.029c-0.066-0.165-0.194-0.294-0.354-0.36l-0.004-0.002c-0.466-0.192-1.008-0.303-1.576-0.303-0.001 0-0.001 0-0.002 0h0c-0.002 0-0.005 0-0.007 0-0.84 0-1.623 0.245-2.281 0.667l0.017-0.010c-0.268-0.764-0.685-1.417-1.219-1.952l0 0c-0.158-0.16-0.378-0.258-0.62-0.258-0.001 0-0.002 0-0.003 0h0c-0.235 0-0.456 0.091-0.623 0.258l-2.508 2.514c-0.458-0.411-1.067-0.662-1.735-0.662-0.161 0-0.318 0.015-0.47 0.042l0.016-0.002c-0.56 0.101-1.046 0.367-1.419 0.745l-0 0c-0.334-0.164-0.726-0.26-1.141-0.26-0.158 0-0.312 0.014-0.462 0.040l0.016-0.002c-0.118 0.020-0.233 0.049-0.345 0.084v-1.937c-0.001-1.334-1.069-2.418-2.396-2.444l-0.002-0v-1.099c0.409-0.073 0.715-0.426 0.716-0.85v-2.49c-0.001-0.477-0.387-0.863-0.864-0.863h-4.212c-0.477 0.001-0.863 0.387-0.863 0.863v2.49c0.001 0.424 0.307 0.777 0.711 0.849l0.005 0.001v1.098c-1.33 0.027-2.398 1.111-2.398 2.445v15.121c-1.035 0.934-1.679 2.238-1.679 3.679 0 2.835 2.489 5.142 5.547 5.142l20.737-0.006c0.001 0 0.002 0 0.003 0 0.731 0 1.385-0.33 1.82-0.85l0.003-0.004c0.441-0.528 0.629-1.213 0.52-1.889l4.142 0.744c0.053 0.010 0.114 0.016 0.176 0.016 0.214 0 0.413-0.069 0.574-0.186l-0.003 0.002c0.215-0.153 0.361-0.392 0.4-0.653l0.112-0.753c0.007-0.043 0.011-0.093 0.011-0.144 0-0.465-0.323-0.854-0.756-0.955l-0.007-0.001-1.46-0.335 2.744-0.504c0.264-0.049 0.487-0.198 0.631-0.406l0.002-0.003c0.148-0.216 0.204-0.477 0.156-0.734zM29.429 14.997c0.312 0 0.619 0.049 0.913 0.147 0.093 0.273 0.146 0.588 0.146 0.914 0 0.541-0.146 1.047-0.401 1.482l0.008-0.014h-1.396l0.445-0.446c0.089-0.093 0.143-0.219 0.143-0.358 0-0.286-0.232-0.518-0.518-0.518-0.139 0-0.266 0.055-0.359 0.144l0-0-0.236 0.236c-0.115-0.373-0.307-0.694-0.558-0.958l0.001 0.001c0.49-0.393 1.119-0.63 1.804-0.63 0.002 0 0.004 0 0.007 0h-0zM26.507 12.401c0.938 0.002 1.697 0.763 1.697 1.701 0 0 0 0 0 0.001v-0c0 0.017-0.001 0.035-0.002 0.052-0.576 0.191-1.070 0.492-1.481 0.879l0.002-0.002c-0.052-0.021-0.121-0.045-0.192-0.065l-0.017-0.004c-0.152-0.809-0.692-1.465-1.416-1.775l-0.016-0.006c0.305-0.471 0.828-0.779 1.424-0.78h0zM23.769 9.515c0.352 0 0.698 0.057 1.031 0.17 0.107 0.309 0.169 0.665 0.169 1.035 0 0.492-0.11 0.959-0.306 1.377l0.008-0.020c-0.277 0.253-0.501 0.559-0.657 0.903l-0.007 0.017c-0.527 0.032-1.002 0.228-1.382 0.537l0.004-0.004c-0.115-0.206-0.245-0.385-0.393-0.545l0.002 0.002 1.188-1.191c0.094-0.094 0.151-0.223 0.151-0.366 0-0.286-0.232-0.518-0.518-0.518-0.143 0-0.273 0.058-0.367 0.152l-1.299 1.301c-0.231-0.112-0.499-0.195-0.781-0.234l-0.014-0.002c0.131-0.656 0.445-1.225 0.885-1.666l-0 0c0.581-0.586 1.386-0.949 2.277-0.949 0.003 0 0.005 0 0.008 0h-0zM19.798 17.526h-0.449c-0.078-0.194-0.264-0.329-0.482-0.329s-0.404 0.135-0.481 0.325l-0.001 0.003h-0.528c0.048-0.077 0.077-0.171 0.077-0.271 0-0.286-0.232-0.518-0.518-0.518-0.143 0-0.273 0.058-0.367 0.152v0l-0.488 0.49c-0.041 0.042-0.076 0.090-0.101 0.144l-0.001 0.003h-1.054c-0.391-0.591-0.635-1.309-0.664-2.083l-0-0.008h8.219c-0.029 0.781-0.273 1.5-0.674 2.106l0.009-0.015h-1.097c-0.027-0.057-0.061-0.105-0.103-0.147l-0.488-0.49c-0.094-0.093-0.222-0.15-0.365-0.15-0.286 0-0.518 0.232-0.518 0.518 0 0.099 0.028 0.192 0.076 0.271l-0.001-0.002zM18.594 14.399c0.201-0.729 0.858-1.256 1.638-1.258h0c0.78 0.002 1.436 0.529 1.635 1.246l0.003 0.012h-3.276zM19.653 8.028c0.463 0.498 0.804 1.116 0.973 1.802l0.006 0.028c-0.252 0.273-0.471 0.583-0.646 0.92l-0.011 0.024c-0.077-0.048-0.17-0.077-0.27-0.077h-0.691c-0.286 0-0.518 0.232-0.518 0.518s0.232 0.518 0.518 0.518v0h0.606c-0.029 0.115-0.057 0.262-0.077 0.412l-0.002 0.022c-0.223 0.059-0.418 0.137-0.601 0.236l0.014-0.007c-0.349-0.595-0.909-1.033-1.576-1.214l-0.018-0.004-0.001-0.004c-0.044-0.249-0.116-0.472-0.215-0.679l0.007 0.016 2.503-2.509zM10.288 12.703c-0.056-0.156-0.089-0.336-0.089-0.523 0-0.873 0.708-1.581 1.581-1.581 0.355 0 0.683 0.117 0.946 0.314l-0.004-0.003c0.085 0.064 0.193 0.103 0.31 0.103 0.18 0 0.338-0.091 0.431-0.23l0.001-0.002c0.237-0.356 0.607-0.608 1.038-0.684l0.009-0.001c0.083-0.016 0.179-0.024 0.276-0.024 0.868 0 1.571 0.704 1.571 1.571 0 0.001 0 0.003 0 0.004v-0c0.001 0.268 0.206 0.492 0.473 0.515 0.579 0.051 1.072 0.415 1.301 0.929-0.302 0.359-0.514 0.804-0.597 1.292l-0.002 0.016h-2.955c-0.367 0-0.682 0.227-0.814 0.548-0.619-0.427-1.385-0.682-2.21-0.682-0.003 0-0.006 0-0.009 0h0c-0.503 0-0.996 0.095-1.465 0.282-0.161 0.065-0.286 0.191-0.349 0.348l-0.002 0.004c-0.109 0.266-0.193 0.577-0.239 0.9l-0.002 0.021c-0.185-0.209-0.315-0.471-0.366-0.76l-0.001-0.009c-0.014-0.080-0.023-0.173-0.023-0.267 0-0.632 0.371-1.178 0.908-1.431l0.010-0.004c0.179-0.084 0.301-0.263 0.301-0.47 0-0.063-0.011-0.123-0.031-0.178l0.001 0.004zM11.832 17.384l0.142 0.141h-1.245c-0.152-0.343-0.241-0.743-0.241-1.164 0-0.327 0.053-0.641 0.152-0.934l-0.006 0.021c0.272-0.093 0.586-0.147 0.912-0.147 0 0 0.001 0 0.001 0h-0c0.002 0 0.005 0 0.007 0 0.915 0 1.73 0.423 2.262 1.084l0.004 0.006c0.088 0.397 0.223 0.777 0.397 1.135h-0.781l-0.871-0.874c-0.094-0.094-0.224-0.152-0.367-0.152-0.286 0-0.518 0.232-0.518 0.518 0 0.143 0.058 0.272 0.151 0.366v0zM9.625 17.525h-1.847c0.086-0.505 0.384-0.926 0.796-1.177l0.008-0.004c0.248 0.33 0.564 0.595 0.93 0.776l0.015 0.007c0.026 0.135 0.058 0.268 0.099 0.399zM4.397 1.036h3.868v2.144h-3.868v-2.145zM7.549 4.217v1.083h-2.436v-1.083h2.435zM2.716 9.848h3.364c0.286 0 0.518-0.232 0.518-0.518s-0.232-0.518-0.518-0.518v0h-3.365v-1.065c0 0 0 0 0 0 0-0.777 0.629-1.407 1.405-1.409h4.423c0.777 0.002 1.405 0.632 1.405 1.409 0 0 0 0 0 0v0 1.065h-0.967c-0.005-0-0.011-0-0.017-0-0.286 0-0.518 0.232-0.518 0.518s0.232 0.518 0.518 0.518c0.006 0 0.012-0 0.018-0l-0.001 0h0.967v0.46c-0.486 0.475-0.788 1.137-0.788 1.869 0 0.157 0.014 0.311 0.040 0.46l-0.002-0.016 0.001 0.006c-0.69 0.478-1.135 1.266-1.135 2.158 0 0.22 0.027 0.434 0.078 0.638l-0.004-0.018c-0.266 0.149-0.494 0.329-0.689 0.54l-0.002 0.002h-4.733v-6.099zM2.716 16.982h4.132c-0.052 0.157-0.092 0.342-0.112 0.533l-0.001 0.012h-0.087c-0.477 0-0.865 0.387-0.865 0.865 0 0.822 0.076 1.63 0.225 2.42-0.136-0.011-0.293-0.018-0.453-0.018-0.002 0-0.003 0-0.005 0h0c-0.627 0-1.224 0.099-1.681 0.28-0.7 0.276-0.893 0.668-0.935 0.94-0.074 0.037-0.147 0.076-0.219 0.116v-5.146zM9.274 23.347c0.186 0.149 0.301 0.276 0.367 0.368h-0.019c-0.293 0-0.82-0.118-1.419-0.45-0.226-0.124-0.42-0.258-0.601-0.409l0.006 0.005c-0.090-0.076-0.207-0.123-0.335-0.123s-0.245 0.046-0.336 0.123l0.001-0.001c-0.166 0.14-0.371 0.281-0.594 0.404-0.599 0.331-1.126 0.45-1.419 0.45h-0.020c0.066-0.091 0.18-0.219 0.367-0.368 0.119-0.096 0.194-0.241 0.194-0.404 0-0.265-0.199-0.483-0.455-0.514l-0.003-0c-0.505-0.059-0.825-0.188-0.975-0.282 0.188-0.117 0.661-0.316 1.515-0.316 0.707 0 1.223 0.149 1.471 0.288 0.157 0.088 0.35 0.088 0.508 0 0.248-0.139 0.764-0.288 1.471-0.288 0.853 0 1.327 0.199 1.515 0.316-0.149 0.094-0.469 0.222-0.975 0.282-0.259 0.031-0.458 0.25-0.458 0.515 0 0.163 0.075 0.309 0.193 0.404l0.001 0.001zM8.238 29.652l0.018 0.096c0.062 0.333 0.191 0.638 0.373 0.904h-3.082c-2.487 0-4.511-1.841-4.511-4.106 0-1.547 0.945-2.897 2.338-3.596 0.16 0.12 0.359 0.222 0.596 0.305-0.091 0.146-0.153 0.32-0.174 0.507l-0.001 0.005c-0.021 0.239 0.052 0.466 0.205 0.639 0.203 0.229 0.514 0.345 0.925 0.345 0.547 0 1.265-0.217 1.921-0.58 0.151-0.083 0.294-0.171 0.427-0.264 0.134 0.092 0.277 0.181 0.428 0.264 0.656 0.363 1.374 0.58 1.921 0.58 0.411 0 0.721-0.116 0.924-0.345 0.153-0.173 0.227-0.4 0.206-0.639-0.021-0.192-0.083-0.366-0.177-0.517l0.003 0.005c0.227-0.077 0.424-0.181 0.601-0.31l-0.006 0.004c1.105 0.555 1.927 1.519 2.221 2.666l-3.664 1.392c-0.902 0.348-1.531 1.209-1.531 2.216 0 0.152 0.014 0.3 0.041 0.444l-0.002-0.015zM27.315 30.165c-0.248 0.295-0.616 0.481-1.029 0.481-0.001 0-0.002 0-0.003 0h-0.544l-0.339-1.834c-0.043-0.246-0.255-0.431-0.511-0.431-0.286 0-0.518 0.232-0.518 0.518 0 0.036 0.004 0.071 0.011 0.104l-0.001-0.003 0.305 1.646-1.782 0.001-0.23-1.241c-0.053-0.234-0.259-0.406-0.506-0.406-0.286 0-0.518 0.232-0.518 0.518 0 0.027 0.002 0.053 0.006 0.079l-0-0.003 0.195 1.052-4.147 0.002-0.312-1.684c-0.042-0.248-0.255-0.434-0.511-0.434-0.286 0-0.518 0.232-0.518 0.518 0 0.037 0.004 0.073 0.011 0.107l-0.001-0.003 0.277 1.497-6.055 0.002c-0.001 0-0.002 0-0.003 0-0.652 0-1.196-0.466-1.315-1.084l-0.001-0.008-0.019-0.096c-0.014-0.072-0.022-0.155-0.022-0.24 0-0.567 0.354-1.052 0.854-1.244l0.009-0.003 2.036-0.774 0.152 0.819c0.043 0.246 0.255 0.431 0.511 0.431 0.286 0 0.518-0.232 0.518-0.518 0-0.036-0.004-0.071-0.011-0.104l0.001 0.003-0.186-1.004 3.023-1.148c0.197-0.076 0.334-0.264 0.334-0.485 0-0.286-0.232-0.518-0.518-0.518-0.066 0-0.129 0.012-0.187 0.035l0.004-0.001-1.406 0.534c-0.395-1.397-1.409-2.564-2.753-3.233-0.042-0.271-0.236-0.664-0.935-0.94-0.458-0.181-1.054-0.28-1.681-0.28-0.431 0-0.843 0.048-1.207 0.135v-0.313c-0.001-0.286-0.233-0.517-0.518-0.517-0.121 0-0.232 0.041-0.321 0.111l0.001-0.001c-0.078-0.489-0.127-1.058-0.135-1.637l-0-0.009h16.875c0.286 0 0.518-0.232 0.518-0.518s-0.232-0.518-0.518-0.518v0h-0.212c0.33-0.679 0.517-1.441 0.517-2.246-0-0.456-0.347-0.831-0.792-0.876l-0.004-0c0.244-0.232 0.575-0.374 0.939-0.374 0.002 0 0.004 0 0.006 0h-0c0.001 0 0.001 0 0.002 0 0.756 0 1.369 0.613 1.369 1.369 0 0.001 0 0.002 0 0.003v-0c0 0.268 0.205 0.492 0.473 0.515 0.623 0.057 1.122 0.523 1.23 1.124l0.001 0.008c0.028 0.163 0.025 0.323-0.003 0.477h-0.556c-0.286 0-0.518 0.232-0.518 0.518s0.232 0.518 0.518 0.518h4.026c-0.013 0.993-0.144 1.948-0.381 2.862l0.018-0.083-2.808 1.658c-0.297-1-1.207-1.717-2.285-1.717-0.304 0-0.596 0.057-0.863 0.161l0.016-0.006-5.783 2.197c-0.197 0.076-0.334 0.264-0.334 0.485 0 0.286 0.232 0.518 0.518 0.518 0.066 0 0.129-0.012 0.187-0.035l-0.004 0.001 0.762-0.29 0.237 1.277c0.039 0.251 0.253 0.442 0.513 0.442 0.286 0 0.518-0.232 0.518-0.518 0-0.040-0.004-0.079-0.013-0.116l0.001 0.003-0.271-1.462 4.037-1.533c0.142-0.056 0.307-0.088 0.479-0.088 0.242 0 0.468 0.064 0.664 0.175l-0.007-0.003c0.348 0.195 0.589 0.531 0.661 0.921l1.048 5.659c0.014 0.073 0.022 0.157 0.022 0.243 0 0.325-0.117 0.623-0.311 0.854l0.002-0.002zM29.163 26.109c-0.243 0.046-0.424 0.257-0.424 0.51 0 0.245 0.17 0.45 0.398 0.504l0.004 0.001 3.858 0.885-0.097 0.647-4.472-0.804-0.699-3.774 3.895-2.299 0.325 0.575-3.285 2.196c-0.14 0.094-0.23 0.252-0.23 0.431 0 0.286 0.232 0.518 0.518 0.518 0.033 0 0.066-0.003 0.097-0.009l-0.003 0 5.16-0.948 0.115 0.62-5.159 0.948z"></path>
</symbol>
<symbol id="Salary" viewBox="0 0 31 32">
<path d="M15.143 12.862c-0.107-0.038-0.216-0.077-0.326-0.118v-1.993c0.239 0.097 0.445 0.216 0.632 0.358l-0.006-0.005c0.105 0.087 0.241 0.14 0.389 0.14 0.19 0 0.36-0.087 0.472-0.223l0.001-0.001c0.216-0.262 0.18-0.651-0.081-0.869-0.397-0.312-0.867-0.551-1.38-0.686l-0.027-0.006v-0.303c0-0.34-0.275-0.617-0.614-0.617s-0.614 0.277-0.614 0.618v0.274c-0.083 0.017-0.149 0.034-0.214 0.054l0.018-0.005c-0.706 0.214-1.215 0.812-1.363 1.6-0.143 0.766 0.105 1.529 0.633 1.945 0.24 0.19 0.534 0.364 0.926 0.545v2.611c-0.277-0.039-0.486-0.134-0.819-0.352-0.095-0.063-0.211-0.101-0.336-0.101-0.214 0-0.403 0.11-0.512 0.277l-0.001 0.002c-0.185 0.285-0.106 0.668 0.178 0.854 0.583 0.383 0.994 0.518 1.491 0.561v0.383c0 0.341 0.275 0.618 0.614 0.618s0.614-0.276 0.614-0.618v-0.443c1.022-0.26 1.676-1.137 1.821-2.001 0.186-1.112-0.415-2.117-1.495-2.501zM13.589 12.175c-0.061-0.039-0.118-0.079-0.17-0.12-0.166-0.13-0.241-0.437-0.183-0.745 0.019-0.103 0.098-0.41 0.353-0.573v1.438zM15.427 15.158c-0.066 0.38-0.291 0.697-0.604 0.884l-0.006 0.003v-1.986c0.666 0.281 0.65 0.858 0.61 1.099z"></path>
<path d="M29.075 13.26l-3.899-2.588v-9.982c0-0.341-0.275-0.618-0.614-0.618h-14.737c-0.339 0-0.614 0.277-0.614 0.618v2.346h-2.333c-0.339 0-0.614 0.276-0.614 0.618v7.019l-3.9 2.588c-0.167 0.112-0.276 0.301-0.276 0.515 0 0 0 0.001 0 0.001v-0 17.283c0 0.341 0.275 0.618 0.614 0.618h10.254c0.339 0 0.614-0.277 0.614-0.618s-0.275-0.618-0.614-0.618h-8.772l8.953-8.998 2.245 1.49c0.095 0.064 0.212 0.102 0.339 0.102s0.243-0.038 0.341-0.104l-0.002 0.001 2.244-1.49 8.952 8.999h-8.773c-0.339 0-0.614 0.276-0.614 0.617s0.275 0.618 0.614 0.618h10.255c0.339 0 0.614-0.277 0.614-0.618v-17.283c0-0.207-0.103-0.401-0.275-0.515zM27.623 13.776l-2.448 1.625v-3.249l2.448 1.624zM10.438 1.308h13.509v14.908l-1.719 1.141v-13.704c0-0.341-0.275-0.618-0.614-0.618h-11.175v-1.727zM6.263 12.152v3.249l-2.447-1.625 2.448-1.624zM3.316 29.569v-14.646l8.775 5.825-8.775 8.821zM15.719 21.677l-8.228-5.462v-11.944h13.508v13.901l-5.281 3.505zM28.123 14.923v14.645l-8.775-8.821 8.775-5.825z"></path>
<path d="M15.719 30.442c-0.333 0.010-0.599 0.283-0.599 0.617s0.266 0.607 0.598 0.617l0.001 0c0.341 0 0.618-0.276 0.618-0.618s-0.276-0.618-0.618-0.618v0z"></path>
</symbol>
<symbol id="Additional income" viewBox="0 0 31 32">
<path d="M11.466 19.179c0-0 0-0.001 0-0.002 0-0.254-0.206-0.461-0.46-0.461h-4.466c-0.254 0-0.46 0.208-0.46 0.463v2.992c0 0.256 0.206 0.463 0.46 0.463h4.466c0.254 0 0.46-0.208 0.46-0.463v-2.992zM10.545 21.709h-3.545v-2.067h3.545v2.067zM22.419 21.637h2.481c0.254 0 0.46-0.207 0.46-0.463 0-0 0-0.001 0-0.002 0-0.254-0.206-0.461-0.46-0.461h-2.481c-0.254 0-0.46 0.208-0.46 0.463s0.206 0.463 0.46 0.463zM22.419 19.642h2.481c0.254 0 0.46-0.208 0.46-0.463 0-0 0-0.001 0-0.001 0-0.254-0.206-0.461-0.46-0.461h-2.481c-0.254 0-0.46 0.208-0.46 0.463s0.206 0.463 0.46 0.463z"></path>
<path d="M26.884 24.172c-0.255 0-0.46 0.208-0.46 0.463v5.954c0 0 0 0 0 0 0 0.088-0.072 0.16-0.16 0.161h-21.090c-0.088-0.001-0.159-0.072-0.159-0.161 0 0 0 0 0 0v0-10.244c0-0 0-0.001 0-0.001 0-0.254-0.206-0.461-0.46-0.461h-0c-0.255 0-0.461 0.207-0.461 0.463v10.245c0 0.599 0.485 1.087 1.081 1.087h21.090c0.597-0.002 1.081-0.487 1.081-1.085 0-0.001 0-0.002 0-0.002v0-5.955c0-0 0-0.001 0-0.002 0-0.254-0.206-0.461-0.46-0.461h-0zM26.264 15.786h-7.603v-2.348c2.402-1.15 4.031-3.561 4.031-6.353 0-0.001 0-0.001 0-0.002v0c0-3.865-3.128-7.010-6.973-7.010-1.334 0-2.632 0.381-3.751 1.1-1.086 0.705-1.947 1.672-2.508 2.813l-0.018 0.041c-0.029 0.059-0.046 0.128-0.046 0.202 0 0.182 0.105 0.339 0.257 0.415l0.003 0.001c0.059 0.029 0.128 0.046 0.201 0.046 0.182 0 0.338-0.105 0.413-0.258l0.001-0.003c1.022-2.117 3.11-3.432 5.449-3.432 3.338 0 6.052 2.729 6.052 6.084s-2.714 6.083-6.052 6.083-6.052-2.728-6.052-6.083c0-0.237 0.013-0.475 0.040-0.708 0.002-0.016 0.003-0.035 0.003-0.053 0-0.254-0.206-0.461-0.461-0.461-0.236 0-0.43 0.177-0.457 0.405l-0 0.002c-0.030 0.269-0.046 0.543-0.046 0.815 0 2.809 1.652 5.237 4.031 6.355v2.348h-7.603c-0.597 0.002-1.081 0.487-1.081 1.085 0 0.001 0 0.002 0 0.002v-0 1.301c0 0.256 0.206 0.463 0.46 0.463s0.46-0.208 0.46-0.463v-1.301c0-0.089 0.072-0.161 0.16-0.161h5.994l4.204 4.83c0.085 0.097 0.209 0.157 0.346 0.157s0.262-0.061 0.346-0.157l0-0.001 4.205-4.83h5.994c0.088 0 0.159 0.072 0.159 0.161v5.59c0 0.255 0.206 0.463 0.46 0.463s0.46-0.208 0.46-0.463v-5.59c0-0 0-0.001 0-0.002 0-0.598-0.483-1.082-1.080-1.085h-0zM15.719 20.533l-3.327-3.822h0.845c0.255 0 0.46-0.207 0.46-0.463v-2.456c0.64 0.195 1.319 0.3 2.021 0.3s1.381-0.106 2.020-0.3v2.456c0 0.255 0.206 0.463 0.46 0.463h0.846l-3.327 3.822z"></path>
<path d="M6.539 27.187h1.241c0.254 0 0.46-0.208 0.46-0.463 0-0 0-0.001 0-0.001 0-0.254-0.206-0.461-0.46-0.461h-1.241c-0.254 0-0.46 0.208-0.46 0.463 0 0.256 0.206 0.463 0.46 0.463zM11.005 26.261h-1.241c-0.254 0-0.46 0.208-0.46 0.463 0 0.256 0.206 0.463 0.46 0.463h1.241c0.254 0 0.46-0.208 0.46-0.463 0-0 0-0.001 0-0.001 0-0.254-0.206-0.461-0.46-0.461h-0zM14.23 27.187c0.254 0 0.46-0.208 0.46-0.463 0-0 0-0.001 0-0.001 0-0.254-0.206-0.461-0.46-0.461h-1.241c-0.254 0-0.46 0.208-0.46 0.463 0 0.256 0.206 0.463 0.46 0.463h1.241zM17.456 27.187c0.255 0 0.46-0.208 0.46-0.463 0-0 0-0.001 0-0.001 0-0.254-0.206-0.461-0.46-0.461h-1.241c-0.254 0-0.46 0.208-0.46 0.463 0 0.256 0.207 0.463 0.46 0.463h1.241zM6.539 29.68h4.962c0.254 0 0.46-0.207 0.46-0.463 0-0 0-0.001 0-0.002 0-0.254-0.206-0.461-0.46-0.461h-4.963c-0.254 0-0.46 0.208-0.46 0.463s0.207 0.463 0.46 0.463zM19.477 27.971c0 0.943 0.764 1.71 1.701 1.71 0.488 0 0.93-0.209 1.241-0.542 0.31 0.334 0.751 0.542 1.241 0.542v0c0.938 0 1.701-0.767 1.701-1.71s-0.764-1.71-1.701-1.71c-0.49 0-0.93 0.209-1.241 0.542-0.31-0.334-0.751-0.542-1.241-0.542v0c-0.94 0.004-1.701 0.767-1.701 1.708 0 0.001 0 0.002 0 0.002v-0zM23.659 27.187c0.429 0 0.78 0.352 0.78 0.784s-0.35 0.784-0.78 0.784c-0.43 0-0.78-0.351-0.78-0.784s0.35-0.784 0.78-0.784zM21.958 27.971c0 0.432-0.35 0.784-0.78 0.784s-0.78-0.351-0.78-0.784c0-0.432 0.35-0.784 0.78-0.784s0.78 0.352 0.78 0.784zM14.193 9.506c-0.071-0.047-0.158-0.075-0.252-0.075-0.161 0-0.302 0.083-0.384 0.208l-0.001 0.002c-0.047 0.071-0.075 0.159-0.075 0.253 0 0.161 0.082 0.303 0.206 0.386l0.002 0.001c0.596 0.392 1.002 0.508 1.528 0.537v0.51c0 0.255 0.207 0.463 0.46 0.463 0.255 0 0.461-0.207 0.461-0.463v-0.547c1.044-0.204 1.654-1.069 1.789-1.876 0.173-1.036-0.366-1.938-1.374-2.296-0.136-0.048-0.275-0.099-0.414-0.152v-2.22c0.351 0.083 0.561 0.262 0.579 0.277 0.081 0.074 0.19 0.12 0.309 0.12 0.134 0 0.254-0.057 0.338-0.149l0-0c0.076-0.082 0.122-0.193 0.122-0.314 0-0.134-0.057-0.255-0.148-0.34l-0-0c-0.026-0.025-0.472-0.427-1.2-0.536v-0.456c0-0.001 0-0.001 0-0.002 0-0.254-0.206-0.461-0.46-0.461h-0c-0.254 0-0.46 0.208-0.46 0.463v0.491c-0.070 0.016-0.141 0.034-0.214 0.056-0.664 0.201-1.16 0.772-1.294 1.49-0.123 0.655 0.085 1.286 0.544 1.648 0.244 0.193 0.548 0.369 0.964 0.555v2.813c-0.363-0.026-0.612-0.115-1.023-0.385zM14.822 5.795c-0.187-0.148-0.267-0.434-0.208-0.748 0.053-0.282 0.239-0.623 0.604-0.758v1.759c-0.151-0.080-0.281-0.164-0.402-0.258l0.007 0.005zM16.245 7.481c0.863 0.307 0.81 1.050 0.773 1.27-0.072 0.432-0.372 0.889-0.88 1.068v-2.376l0.107 0.038z"></path>
</symbol>
<symbol id="Technique" viewBox="0 0 32 32">
<path d="M21.709 9.697c-0.345 0-0.625 0.28-0.625 0.625s0.28 0.625 0.625 0.625v0c0.345 0 0.625-0.28 0.625-0.625s-0.28-0.625-0.625-0.625v0zM10.353 21.053c-0.345 0-0.625 0.28-0.625 0.625s0.28 0.625 0.625 0.625v0c0.345 0 0.625-0.28 0.625-0.625s-0.28-0.625-0.625-0.625v0z"></path>
<path d="M31.254 3.845c-0.043-0.010-0.091-0.016-0.142-0.016-0.173 0-0.33 0.071-0.444 0.185l-0 0-2.591 2.611h-1.242l-1.367-1.417v-1.259l2.554-2.592c0.111-0.113 0.18-0.268 0.18-0.439 0-0.274-0.176-0.506-0.421-0.591l-0.004-0.001c-0.593-0.206-1.277-0.326-1.989-0.326-0.003 0-0.005 0-0.008 0h0c-2.035 0-3.885 0.949-5.074 2.605-1.113 1.549-1.455 3.448-0.964 5.265l-4.604 4.604-7.67-7.687v-1.509c0-0.219-0.115-0.423-0.303-0.536l-4.419-2.652c-0.092-0.056-0.203-0.089-0.321-0.089-0.173 0-0.329 0.070-0.442 0.183v0l-1.768 1.767c-0.113 0.113-0.183 0.27-0.183 0.442 0 0.119 0.033 0.23 0.091 0.324l-0.002-0.003 2.651 4.419c0.113 0.189 0.317 0.303 0.536 0.303l1.509 0.001 7.67 7.687-4.586 4.586c-1.817-0.491-3.717-0.147-5.267 0.966-1.654 1.189-2.602 3.038-2.602 5.074 0 0.682 0.11 1.354 0.326 1.995 0.086 0.25 0.318 0.426 0.592 0.426 0.174 0 0.331-0.071 0.444-0.185l0-0 2.591-2.611h1.249l1.423 1.423v1.25l-2.611 2.591c-0.114 0.113-0.185 0.27-0.185 0.444 0 0.274 0.176 0.506 0.421 0.591l0.004 0.001c0.642 0.216 1.313 0.326 1.996 0.326 2.035 0 3.884-0.949 5.073-2.603 1.114-1.55 1.457-3.45 0.966-5.267l3.683-3.683 0.844 0.916-0.387 0.387c-0.109 0.112-0.177 0.266-0.177 0.436 0 0.345 0.28 0.625 0.625 0.625 0.17 0 0.323-0.067 0.436-0.177l0.351-0.351 7.934 8.618c0.679 0.679 1.616 1.099 2.652 1.099s1.973-0.42 2.652-1.099l0-0c0.677-0.679 1.096-1.617 1.096-2.652s-0.419-1.972-1.096-2.652l0 0-0.020-0.019-8.613-7.901 0.347-0.347c0.113-0.113 0.183-0.269 0.183-0.442 0-0.345-0.28-0.625-0.625-0.625-0.173 0-0.329 0.070-0.442 0.183v0l-0.385 0.385-0.918-0.843 3.701-3.701c0.526 0.141 1.069 0.211 1.619 0.211 3.446 0 6.25-2.803 6.25-6.249 0-0.683-0.11-1.354-0.326-1.996-0.069-0.206-0.24-0.36-0.451-0.409zM5.518 6.371c-0.112-0.11-0.265-0.177-0.434-0.177-0.003 0-0.006 0-0.009 0h-1.412l-2.219-3.705 1.077-1.078 3.697 2.219v1.414c0 0.166 0.066 0.324 0.183 0.441l7.854 7.871-0.884 0.884-7.853-7.87zM21.415 18.562l8.642 7.928c0.452 0.452 0.732 1.077 0.732 1.768 0 1.381-1.119 2.5-2.5 2.5-0.691 0-1.316-0.28-1.768-0.733v0l-7.941-8.627 2.837-2.837zM20.494 17.717l-2.762 2.762-0.844-0.917 2.688-2.688 0.918 0.843zM25.781 11.25c-0.002 0-0.003 0-0.005 0-0.57 0-1.117-0.095-1.627-0.271l0.035 0.011c-0.059-0.021-0.128-0.033-0.199-0.033-0.173 0-0.329 0.070-0.442 0.183v0l-12.37 12.371c-0.113 0.113-0.183 0.269-0.183 0.442 0 0.071 0.012 0.14 0.034 0.204l-0.001-0.004c0.52 1.543 0.271 3.189-0.682 4.515-0.907 1.266-2.374 2.082-4.031 2.082-0.009 0-0.019-0-0.028-0h0.001c-0.183 0-0.365-0.010-0.545-0.029l1.985-1.97c0.118-0.117 0.185-0.277 0.185-0.443v-1.768c0-0.166-0.066-0.325-0.183-0.442l-1.789-1.789c-0.113-0.113-0.269-0.183-0.442-0.183-0 0-0 0-0 0h-1.769c-0.166 0-0.326 0.066-0.443 0.185l-1.97 1.985c-0.019-0.163-0.029-0.351-0.029-0.542 0-0.001 0-0.002 0-0.003v0c-0-0.008-0-0.018-0-0.027 0-1.657 0.815-3.123 2.067-4.020l0.015-0.010c1.327-0.953 2.973-1.202 4.515-0.682 0.225 0.076 0.474 0.018 0.642-0.15l12.371-12.371c0.168-0.168 0.226-0.416 0.15-0.641-0.52-1.543-0.272-3.188 0.681-4.514 0.907-1.267 2.374-2.083 4.032-2.083 0.009 0 0.019 0 0.028 0h-0.001c0.189 0 0.376 0.010 0.562 0.031l-1.944 1.973c-0.115 0.117-0.179 0.274-0.179 0.439v1.768c0 0.162 0.063 0.318 0.175 0.434l1.727 1.789c0.118 0.123 0.28 0.191 0.45 0.191h1.768c0.167 0 0.326-0.066 0.444-0.185l1.969-1.985c0.019 0.18 0.029 0.362 0.029 0.545 0 2.757-2.243 5-5 5z"></path>
<path d="M19.499 11.647l-7.821 7.822c-0.109 0.112-0.177 0.266-0.177 0.436 0 0.345 0.28 0.625 0.625 0.625 0.17 0 0.323-0.067 0.436-0.177l7.821-7.821c0.113-0.113 0.183-0.269 0.183-0.442 0-0.345-0.28-0.625-0.625-0.625-0.173 0-0.329 0.070-0.442 0.183v0zM27.397 28.25c0.113 0.113 0.269 0.182 0.441 0.182 0.345 0 0.625-0.28 0.625-0.625 0-0.173-0.070-0.33-0.184-0.443l-5.634-5.615c-0.112-0.109-0.266-0.176-0.435-0.176-0.345 0-0.625 0.28-0.625 0.625 0 0.17 0.068 0.324 0.178 0.437l-0-0 5.634 5.615z"></path>
</symbol>
<symbol id="Other" viewBox="0 0 32 32">
<path d="M31.996 22.334c-0.956-7.667-8.11-8.803-10.129-8.971v-6.963c0-0.048-0.067-4.8-5.867-4.8s-5.867 4.752-5.867 4.8v6.963c-2.019 0.167-9.17 1.303-10.129 8.97 0 0.011-0.004 0.053-0.004 0.066v2.133c0 0.295 0.239 0.534 0.533 0.534h2.667v1.066h-1.6c-0.294 0-0.533 0.239-0.533 0.533 0 0 0 0 0 0.001v-0c0 1.291 0.78 3.733 3.733 3.733s3.733-2.442 3.733-3.734c0-0.294-0.239-0.533-0.533-0.533v0h-1.6v-1.066h8v1.066h-1.6c-0.294 0-0.533 0.239-0.533 0.533 0 0 0 0 0 0.001v-0c0 1.291 0.78 3.733 3.733 3.733s3.733-2.442 3.733-3.734c0-0.294-0.239-0.533-0.533-0.533v0h-1.6v-1.066h8v1.066h-1.6c-0.294 0-0.533 0.239-0.533 0.533 0 0 0 0 0 0.001v-0c0 1.291 0.78 3.733 3.733 3.733s3.733-2.442 3.733-3.734c0-0.294-0.239-0.533-0.533-0.533v0h-1.6v-1.066h2.667c0.294 0 0.533-0.239 0.533-0.533 0-0 0-0 0-0.001v0-2.133c0-0.013 0-0.054-0.004-0.066zM11.2 6.4c0-0.153 0.053-3.734 4.8-3.734 4.714 0 4.8 3.583 4.8 3.734v6.933h-1.067v-3.2h-1.066v3.2h-7.467v-6.933zM6.187 15.434c1.315-0.593 2.846-0.967 4.455-1.033l0.025-0.001h10.666c1.634 0.067 3.165 0.441 4.558 1.066l-0.078-0.031c2.656 1.12 4.581 3.508 5.027 6.385l0.006 0.047h-29.692c0.452-2.924 2.377-5.312 4.979-6.412l0.054-0.020zM4.8 29.333c-0.055 0.004-0.119 0.007-0.184 0.007-1.243 0-2.27-0.927-2.426-2.128l-0.001-0.012h5.219c-0.164 1.213-1.193 2.139-2.438 2.139-0.060 0-0.119-0.002-0.177-0.006l0.008 0zM5.333 26.133h-1.066v-1.066h1.066v1.066zM16 29.333c-0.055 0.004-0.119 0.007-0.184 0.007-1.243 0-2.27-0.927-2.426-2.128l-0.001-0.012h5.219c-0.164 1.213-1.193 2.139-2.438 2.139-0.060 0-0.119-0.002-0.177-0.006l0.008 0zM16.533 26.133h-1.066v-1.066h1.066v1.066zM27.2 29.333c-0.056 0.005-0.121 0.007-0.187 0.007-1.243 0-2.27-0.927-2.425-2.128l-0.001-0.012h5.221c-0.164 1.213-1.193 2.139-2.438 2.139-0.060 0-0.119-0.002-0.177-0.006l0.008 0zM27.733 26.133h-1.066v-1.066h1.066v1.066zM30.933 24h-29.866v-1.067h29.866v1.067z"></path>
<path d="M16 15.467c-1.473 0-2.667 1.194-2.667 2.667s1.194 2.667 2.667 2.667v0c1.473 0 2.667-1.194 2.667-2.667s-1.194-2.667-2.667-2.667v0zM16 19.734c-0.884 0-1.6-0.716-1.6-1.6s0.716-1.6 1.6-1.6v0c0.884 0 1.6 0.716 1.6 1.6s-0.716 1.6-1.6 1.6v0z"></path>
<path d="M17.067 18.133c0 0.589-0.478 1.067-1.067 1.067s-1.067-0.478-1.067-1.067v0c0-0.589 0.478-1.067 1.067-1.067s1.067 0.478 1.067 1.067v0zM18.667 8h1.066v1.067h-1.066v-1.067zM18.667 6.4v0.533h1.066v-0.533c0-0.273-0.107-2.667-3.733-2.667v1.067c2.474 0 2.667 1.226 2.667 1.6zM11.2 17.6h1.067v1.066h-1.067v-1.066zM9.067 17.6h1.066v1.066h-1.066v-1.066zM19.733 17.6h1.067v1.066h-1.067v-1.066zM21.867 17.6h1.066v1.066h-1.066v-1.066z"></path>
</symbol>
<symbol id="Communal, communication" viewBox="0 0 32 32"><path d="M30.679 0h-29.358c-0.451 0-0.819 0.369-0.819 0.819s0.369 0.819 0.819 0.819h1.768v29.522c0 0.3 0.164 0.58 0.43 0.724s0.587 0.13 0.84-0.041l3.557-2.369 3.571 2.376c0.273 0.184 0.635 0.184 0.908 0l3.557-2.369 3.571 2.376c0.273 0.184 0.635 0.184 0.908 0l3.557-2.369 3.571 2.376c0.137 0.089 0.294 0.137 0.451 0.137 0.13 0 0.266-0.034 0.389-0.096 0.266-0.143 0.43-0.423 0.43-0.724l-0.014-29.522h1.864c0.451 0 0.819-0.369 0.819-0.819s-0.369-0.84-0.819-0.84zM27.197 29.631l-2.751-1.83c-0.273-0.184-0.635-0.184-0.908 0l-3.557 2.376-3.571-2.376c-0.273-0.184-0.635-0.184-0.908 0l-3.557 2.369-3.571-2.369c-0.273-0.184-0.635-0.184-0.908 0l-2.738 1.823v-27.992h22.462l0.007 27.999z"></path><path d="M8.497 13.081h8.582c0.451 0 0.819-0.369 0.819-0.819s-0.369-0.819-0.819-0.819h-8.582c-0.451 0-0.819 0.369-0.819 0.819s0.362 0.819 0.819 0.819z"></path><path d="M8.497 15.928h6.431c0.451 0 0.819-0.369 0.819-0.819s-0.369-0.819-0.819-0.819h-6.431c-0.451 0-0.819 0.369-0.819 0.819s0.362 0.819 0.819 0.819z"></path><path d="M21.366 13.081h2.144c0.451 0 0.819-0.369 0.819-0.819s-0.369-0.819-0.819-0.819h-2.144c-0.451 0-0.819 0.369-0.819 0.819s0.362 0.819 0.819 0.819z"></path><path d="M21.366 15.928h2.144c0.451 0 0.819-0.369 0.819-0.819s-0.369-0.819-0.819-0.819h-2.144c-0.451 0-0.819 0.369-0.819 0.819s0.362 0.819 0.819 0.819z"></path><path d="M8.497 6.507h8.582c0.451 0 0.819-0.369 0.819-0.819s-0.369-0.819-0.819-0.819h-8.582c-0.451 0-0.819 0.369-0.819 0.819s0.362 0.819 0.819 0.819z"></path><path d="M8.497 9.347h6.431c0.451 0 0.819-0.369 0.819-0.819s-0.369-0.819-0.819-0.819h-6.431c-0.451 0-0.819 0.369-0.819 0.819s0.362 0.819 0.819 0.819z"></path><path d="M21.366 6.507h2.144c0.451 0 0.819-0.369 0.819-0.819s-0.369-0.819-0.819-0.819h-2.144c-0.451 0-0.819 0.369-0.819 0.819s0.362 0.819 0.819 0.819z"></path><path d="M21.366 9.347h2.144c0.451 0 0.819-0.369 0.819-0.819s-0.369-0.819-0.819-0.819h-2.144c-0.451 0-0.819 0.369-0.819 0.819s0.362 0.819 0.819 0.819z"></path><path d="M8.497 19.738h8.582c0.451 0 0.819-0.369 0.819-0.819s-0.369-0.819-0.819-0.819h-8.582c-0.451 0-0.819 0.369-0.819 0.819s0.362 0.819 0.819 0.819z"></path><path d="M8.497 22.578h6.431c0.451 0 0.819-0.369 0.819-0.819s-0.369-0.819-0.819-0.819h-6.431c-0.451 0-0.819 0.369-0.819 0.819s0.362 0.819 0.819 0.819z"></path><path d="M21.366 19.738h2.144c0.451 0 0.819-0.369 0.819-0.819s-0.369-0.819-0.819-0.819h-2.144c-0.451 0-0.819 0.369-0.819 0.819s0.362 0.819 0.819 0.819z"></path><path d="M21.366 22.578h2.144c0.451 0 0.819-0.369 0.819-0.819s-0.369-0.819-0.819-0.819h-2.144c-0.451 0-0.819 0.369-0.819 0.819s0.362 0.819 0.819 0.819z"></path></symbol>
<symbol id="smallArrowRight">
<svg width="7" height="12" fill="none" xmlns="http://www.w3.org/2000/svg"><path d="m1 1 4 5-4 5" stroke="#FF751D" stroke-width="2"/></svg></symbol>
<symbol id="smallArrowLeft">
<svg width="7" height="12" fill="none" xmlns="http://www.w3.org/2000/svg"><path d="M6 1 2 6l4 5" stroke="#FF751D" stroke-width="2"/></svg></symbol>
</defs>
</svg>
